<svg xmlns="http://www.w3.org/2000/svg" width="600" height="120" viewBox="0 0 600 120"><rect width="600" height="120" rx="12" fill="#06090E"/><line x1="0" y1="60" x2="600" y2="60" stroke="#173042" stroke-width="1"/><line x1="0" y1="59.03" x2="0" y2="60.97" stroke="#5EE7FF" stroke-width="1"/><line x1="1" y1="56.74" x2="1" y2="63.26" stroke="#5EE7FF" stroke-width="1"/><line x1="2" y1="53.49" x2="2" y2="66.51" stroke="#5EE7FF" stroke-width="1"/><line x1="3" y1="56.01" x2="3" y2="63.99" stroke="#5EE7FF" stroke-width="1"/><line x1="4" y1="49.09" x2="4" y2="70.91" stroke="#5EE7FF" stroke-width="1"/><line x1="5" y1="46.25" x2="5" y2="73.75" stroke="#5EE7FF" stroke-width="1"/><line x1="6" y1="50.44" x2="6" y2="69.56" stroke="#5EE7FF" stroke-width="1"/><line x1="7" y1="37.70" x2="7" y2="82.30" stroke="#5EE7FF" stroke-width="1"/><line x1="8" y1="42.66" x2="8" y2="77.34" stroke="#5EE7FF" stroke-width="1"/><line x1="9" y1="41.97" x2="9" y2="78.03" stroke="#5EE7FF" stroke-width="1"/><line x1="10" y1="38.13" x2="10" y2="81.87" stroke="#5EE7FF" stroke-width="1"/><line x1="11" y1="48.43" x2="11" y2="71.57" stroke="#5EE7FF" stroke-width="1"/><line x1="12" y1="32.06" x2="12" y2="87.94" stroke="#5EE7FF" stroke-width="1"/><line x1="13" y1="33.82" x2="13" y2="86.18" stroke="#5EE7FF" stroke-width="1"/><line x1="14" y1="37.13" x2="14" y2="82.87" stroke="#5EE7FF" stroke-width="1"/><line x1="15" y1="32.33" x2="15" y2="87.67" stroke="#5EE7FF" stroke-width="1"/><line x1="16" y1="48.14" x2="16" y2="71.86" stroke="#5EE7FF" stroke-width="1"/><line x1="17" y1="36.67" x2="17" y2="83.33" stroke="#5EE7FF" stroke-width="1"/><line x1="18" y1="37.17" x2="18" y2="82.83" stroke="#5EE7FF" stroke-width="1"/><line x1="19" y1="44.21" x2="19" y2="75.79" stroke="#5EE7FF" stroke-width="1"/><line x1="20" y1="30.70" x2="20" y2="89.30" stroke="#5EE7FF" stroke-width="1"/><line x1="21" y1="38.85" x2="21" y2="81.15" stroke="#5EE7FF" stroke-width="1"/><line x1="22" y1="35.31" x2="22" y2="84.69" stroke="#5EE7FF" stroke-width="1"/><line x1="23" y1="34.07" x2="23" y2="85.93" stroke="#5EE7FF" stroke-width="1"/><line x1="24" y1="50.39" x2="24" y2="69.61" stroke="#5EE7FF" stroke-width="1"/><line x1="25" y1="35.12" x2="25" y2="84.88" stroke="#5EE7FF" stroke-width="1"/><line x1="26" y1="39.09" x2="26" y2="80.91" stroke="#5EE7FF" stroke-width="1"/><line x1="27" y1="34.43" x2="27" y2="85.57" stroke="#5EE7FF" stroke-width="1"/><line x1="28" y1="29.92" x2="28" y2="90.08" stroke="#5EE7FF" stroke-width="1"/><line x1="29" y1="46.13" x2="29" y2="73.87" stroke="#5EE7FF" stroke-width="1"/><line x1="30" y1="35.72" x2="30" y2="84.28" stroke="#5EE7FF" stroke-width="1"/><line x1="31" y1="41.35" x2="31" y2="78.65" stroke="#5EE7FF" stroke-width="1"/><line x1="32" y1="42.88" x2="32" y2="77.12" stroke="#5EE7FF" stroke-width="1"/><line x1="33" y1="33.19" x2="33" y2="86.81" stroke="#5EE7FF" stroke-width="1"/><line x1="34" y1="41.10" x2="34" y2="78.90" stroke="#5EE7FF" stroke-width="1"/><line x1="35" y1="31.11" x2="35" y2="88.89" stroke="#5EE7FF" stroke-width="1"/><line x1="36" y1="33.19" x2="36" y2="86.81" stroke="#5EE7FF" stroke-width="1"/><line x1="37" y1="43.94" x2="37" y2="76.06" stroke="#5EE7FF" stroke-width="1"/><line x1="38" y1="37.49" x2="38" y2="82.51" stroke="#5EE7FF" stroke-width="1"/><line x1="39" y1="45.07" x2="39" y2="74.93" stroke="#5EE7FF" stroke-width="1"/><line x1="40" y1="33.36" x2="40" y2="86.64" stroke="#5EE7FF" stroke-width="1"/><line x1="41" y1="31.93" x2="41" y2="88.07" stroke="#5EE7FF" stroke-width="1"/><line x1="42" y1="40.29" x2="42" y2="79.71" stroke="#5EE7FF" stroke-width="1"/><line x1="43" y1="32.91" x2="43" y2="87.09" stroke="#5EE7FF" stroke-width="1"/><line x1="44" y1="42.66" x2="44" y2="77.34" stroke="#5EE7FF" stroke-width="1"/><line x1="45" y1="41.57" x2="45" y2="78.43" stroke="#5EE7FF" stroke-width="1"/><line x1="46" y1="36.36" x2="46" y2="83.64" stroke="#5EE7FF" stroke-width="1"/><line x1="47" y1="47.29" x2="47" y2="72.71" stroke="#5EE7FF" stroke-width="1"/><line x1="48" y1="30.19" x2="48" y2="89.81" stroke="#5EE7FF" stroke-width="1"/><line x1="49" y1="34.25" x2="49" y2="85.75" stroke="#5EE7FF" stroke-width="1"/><line x1="50" y1="38.08" x2="50" y2="81.92" stroke="#5EE7FF" stroke-width="1"/><line x1="51" y1="34.21" x2="51" y2="85.79" stroke="#5EE7FF" stroke-width="1"/><line x1="52" y1="51.61" x2="52" y2="68.39" stroke="#5EE7FF" stroke-width="1"/><line x1="53" y1="34.79" x2="53" y2="85.21" stroke="#5EE7FF" stroke-width="1"/><line x1="54" y1="36.25" x2="54" y2="83.75" stroke="#5EE7FF" stroke-width="1"/><line x1="55" y1="39.05" x2="55" y2="80.95" stroke="#5EE7FF" stroke-width="1"/><line x1="56" y1="30.07" x2="56" y2="89.93" stroke="#5EE7FF" stroke-width="1"/><line x1="57" y1="43.99" x2="57" y2="76.01" stroke="#5EE7FF" stroke-width="1"/><line x1="58" y1="36.21" x2="58" y2="83.79" stroke="#5EE7FF" stroke-width="1"/><line x1="59" y1="36.48" x2="59" y2="83.52" stroke="#5EE7FF" stroke-width="1"/><line x1="60" y1="48.38" x2="60" y2="71.62" stroke="#5EE7FF" stroke-width="1"/><line x1="61" y1="33.05" x2="61" y2="86.95" stroke="#5EE7FF" stroke-width="1"/><line x1="62" y1="38.12" x2="62" y2="81.88" stroke="#5EE7FF" stroke-width="1"/><line x1="63" y1="32.94" x2="63" y2="87.06" stroke="#5EE7FF" stroke-width="1"/><line x1="64" y1="31.50" x2="64" y2="88.50" stroke="#5EE7FF" stroke-width="1"/><line x1="65" y1="47.25" x2="65" y2="72.75" stroke="#5EE7FF" stroke-width="1"/><line x1="66" y1="37.65" x2="66" y2="82.35" stroke="#5EE7FF" stroke-width="1"/><line x1="67" y1="41.87" x2="67" y2="78.13" stroke="#5EE7FF" stroke-width="1"/><line x1="68" y1="37.84" x2="68" y2="82.16" stroke="#5EE7FF" stroke-width="1"/><line x1="69" y1="31.50" x2="69" y2="88.50" stroke="#5EE7FF" stroke-width="1"/><line x1="70" y1="45.35" x2="70" y2="74.65" stroke="#5EE7FF" stroke-width="1"/><line x1="71" y1="33.05" x2="71" y2="86.95" stroke="#5EE7FF" stroke-width="1"/><line x1="72" y1="37.65" x2="72" y2="82.35" stroke="#5EE7FF" stroke-width="1"/><line x1="73" y1="45.03" x2="73" y2="74.97" stroke="#5EE7FF" stroke-width="1"/><line x1="74" y1="36.21" x2="74" y2="83.79" stroke="#5EE7FF" stroke-width="1"/><line x1="75" y1="43.99" x2="75" y2="76.01" stroke="#5EE7FF" stroke-width="1"/><line x1="76" y1="30.07" x2="76" y2="89.93" stroke="#5EE7FF" stroke-width="1"/><line x1="77" y1="30.60" x2="77" y2="89.40" stroke="#5EE7FF" stroke-width="1"/><line x1="78" y1="41.06" x2="78" y2="78.94" stroke="#5EE7FF" stroke-width="1"/><line x1="79" y1="34.79" x2="79" y2="85.21" stroke="#5EE7FF" stroke-width="1"/><line x1="80" y1="48.14" x2="80" y2="71.86" stroke="#5EE7FF" stroke-width="1"/><line x1="81" y1="36.67" x2="81" y2="83.33" stroke="#5EE7FF" stroke-width="1"/><line x1="82" y1="34.21" x2="82" y2="85.79" stroke="#5EE7FF" stroke-width="1"/><line x1="83" y1="44.21" x2="83" y2="75.79" stroke="#5EE7FF" stroke-width="1"/><line x1="84" y1="30.19" x2="84" y2="89.81" stroke="#5EE7FF" stroke-width="1"/><line x1="85" y1="38.85" x2="85" y2="81.15" stroke="#5EE7FF" stroke-width="1"/><line x1="86" y1="39.05" x2="86" y2="80.95" stroke="#5EE7FF" stroke-width="1"/><line x1="87" y1="36.36" x2="87" y2="83.64" stroke="#5EE7FF" stroke-width="1"/><line x1="88" y1="50.44" x2="88" y2="69.56" stroke="#5EE7FF" stroke-width="1"/><line x1="89" y1="32.91" x2="89" y2="87.09" stroke="#5EE7FF" stroke-width="1"/><line x1="90" y1="35.34" x2="90" y2="84.66" stroke="#5EE7FF" stroke-width="1"/><line x1="91" y1="35.53" x2="91" y2="84.47" stroke="#5EE7FF" stroke-width="1"/><line x1="92" y1="31.93" x2="92" y2="88.07" stroke="#5EE7FF" stroke-width="1"/><line x1="93" y1="49.57" x2="93" y2="70.43" stroke="#5EE7FF" stroke-width="1"/><line x1="94" y1="37.49" x2="94" y2="82.51" stroke="#5EE7FF" stroke-width="1"/><line x1="95" y1="38.85" x2="95" y2="81.15" stroke="#5EE7FF" stroke-width="1"/><line x1="96" y1="42.88" x2="96" y2="77.12" stroke="#5EE7FF" stroke-width="1"/><line x1="97" y1="31.11" x2="97" y2="88.89" stroke="#5EE7FF" stroke-width="1"/><line x1="98" y1="40.09" x2="98" y2="79.91" stroke="#5EE7FF" stroke-width="1"/><line x1="99" y1="33.78" x2="99" y2="86.22" stroke="#5EE7FF" stroke-width="1"/><line x1="100" y1="33.19" x2="100" y2="86.81" stroke="#5EE7FF" stroke-width="1"/><line x1="101" y1="48.38" x2="101" y2="71.62" stroke="#5EE7FF" stroke-width="1"/><line x1="102" y1="35.72" x2="102" y2="84.28" stroke="#5EE7FF" stroke-width="1"/><line x1="103" y1="40.84" x2="103" y2="79.16" stroke="#5EE7FF" stroke-width="1"/><line x1="104" y1="33.36" x2="104" y2="86.64" stroke="#5EE7FF" stroke-width="1"/><line x1="105" y1="29.92" x2="105" y2="90.08" stroke="#5EE7FF" stroke-width="1"/><line x1="106" y1="44.21" x2="106" y2="75.79" stroke="#5EE7FF" stroke-width="1"/><line x1="107" y1="35.12" x2="107" y2="84.88" stroke="#5EE7FF" stroke-width="1"/><line x1="108" y1="42.66" x2="108" y2="77.34" stroke="#5EE7FF" stroke-width="1"/><line x1="109" y1="41.57" x2="109" y2="78.43" stroke="#5EE7FF" stroke-width="1"/><line x1="110" y1="34.07" x2="110" y2="85.93" stroke="#5EE7FF" stroke-width="1"/><line x1="111" y1="42.92" x2="111" y2="77.08" stroke="#5EE7FF" stroke-width="1"/><line x1="112" y1="30.70" x2="112" y2="89.30" stroke="#5EE7FF" stroke-width="1"/><line x1="113" y1="34.25" x2="113" y2="85.75" stroke="#5EE7FF" stroke-width="1"/><line x1="114" y1="42.09" x2="114" y2="77.91" stroke="#5EE7FF" stroke-width="1"/><line x1="115" y1="36.67" x2="115" y2="83.33" stroke="#5EE7FF" stroke-width="1"/><line x1="116" y1="47.01" x2="116" y2="72.99" stroke="#5EE7FF" stroke-width="1"/><line x1="117" y1="32.33" x2="117" y2="87.67" stroke="#5EE7FF" stroke-width="1"/><line x1="118" y1="32.77" x2="118" y2="87.23" stroke="#5EE7FF" stroke-width="1"/><line x1="119" y1="39.05" x2="119" y2="80.95" stroke="#5EE7FF" stroke-width="1"/><line x1="120" y1="32.06" x2="120" y2="87.94" stroke="#5EE7FF" stroke-width="1"/><line x1="121" y1="43.99" x2="121" y2="76.01" stroke="#5EE7FF" stroke-width="1"/><line x1="122" y1="40.04" x2="122" y2="79.96" stroke="#5EE7FF" stroke-width="1"/><line x1="123" y1="37.33" x2="123" y2="82.67" stroke="#5EE7FF" stroke-width="1"/><line x1="124" y1="48.38" x2="124" y2="71.62" stroke="#5EE7FF" stroke-width="1"/><line x1="125" y1="30.98" x2="125" y2="89.02" stroke="#5EE7FF" stroke-width="1"/><line x1="126" y1="35.34" x2="126" y2="84.66" stroke="#5EE7FF" stroke-width="1"/><line x1="127" y1="36.44" x2="127" y2="83.56" stroke="#5EE7FF" stroke-width="1"/><line x1="128" y1="33.89" x2="128" y2="86.11" stroke="#5EE7FF" stroke-width="1"/><line x1="129" y1="51.86" x2="129" y2="68.14" stroke="#5EE7FF" stroke-width="1"/><line x1="130" y1="35.27" x2="130" y2="84.73" stroke="#5EE7FF" stroke-width="1"/><line x1="131" y1="37.88" x2="131" y2="82.12" stroke="#5EE7FF" stroke-width="1"/><line x1="132" y1="37.84" x2="132" y2="82.16" stroke="#5EE7FF" stroke-width="1"/><line x1="133" y1="29.31" x2="133" y2="90.69" stroke="#5EE7FF" stroke-width="1"/><line x1="134" y1="45.35" x2="134" y2="74.65" stroke="#5EE7FF" stroke-width="1"/><line x1="135" y1="35.27" x2="135" y2="84.73" stroke="#5EE7FF" stroke-width="1"/><line x1="136" y1="37.65" x2="136" y2="82.35" stroke="#5EE7FF" stroke-width="1"/><line x1="137" y1="46.96" x2="137" y2="73.04" stroke="#5EE7FF" stroke-width="1"/><line x1="138" y1="33.89" x2="138" y2="86.11" stroke="#5EE7FF" stroke-width="1"/><line x1="139" y1="39.83" x2="139" y2="80.17" stroke="#5EE7FF" stroke-width="1"/><line x1="140" y1="31.53" x2="140" y2="88.47" stroke="#5EE7FF" stroke-width="1"/><line x1="141" y1="30.98" x2="141" y2="89.02" stroke="#5EE7FF" stroke-width="1"/><line x1="142" y1="45.30" x2="142" y2="74.70" stroke="#5EE7FF" stroke-width="1"/><line x1="143" y1="37.33" x2="143" y2="82.67" stroke="#5EE7FF" stroke-width="1"/><line x1="144" y1="43.72" x2="144" y2="76.28" stroke="#5EE7FF" stroke-width="1"/><line x1="145" y1="36.67" x2="145" y2="83.33" stroke="#5EE7FF" stroke-width="1"/><line x1="146" y1="32.06" x2="146" y2="87.94" stroke="#5EE7FF" stroke-width="1"/><line x1="147" y1="44.21" x2="147" y2="75.79" stroke="#5EE7FF" stroke-width="1"/><line x1="148" y1="32.33" x2="148" y2="87.67" stroke="#5EE7FF" stroke-width="1"/><line x1="149" y1="38.85" x2="149" y2="81.15" stroke="#5EE7FF" stroke-width="1"/><line x1="150" y1="43.14" x2="150" y2="76.86" stroke="#5EE7FF" stroke-width="1"/><line x1="151" y1="36.67" x2="151" y2="83.33" stroke="#5EE7FF" stroke-width="1"/><line x1="152" y1="45.90" x2="152" y2="74.10" stroke="#5EE7FF" stroke-width="1"/><line x1="153" y1="30.70" x2="153" y2="89.30" stroke="#5EE7FF" stroke-width="1"/><line x1="154" y1="31.96" x2="154" y2="88.04" stroke="#5EE7FF" stroke-width="1"/><line x1="155" y1="39.30" x2="155" y2="80.70" stroke="#5EE7FF" stroke-width="1"/><line x1="156" y1="34.07" x2="156" y2="85.93" stroke="#5EE7FF" stroke-width="1"/><line x1="157" y1="49.57" x2="157" y2="70.43" stroke="#5EE7FF" stroke-width="1"/><line x1="158" y1="35.53" x2="158" y2="84.47" stroke="#5EE7FF" stroke-width="1"/><line x1="159" y1="35.12" x2="159" y2="84.88" stroke="#5EE7FF" stroke-width="1"/><line x1="160" y1="42.88" x2="160" y2="77.12" stroke="#5EE7FF" stroke-width="1"/><line x1="161" y1="29.92" x2="161" y2="90.08" stroke="#5EE7FF" stroke-width="1"/><line x1="162" y1="40.09" x2="162" y2="79.91" stroke="#5EE7FF" stroke-width="1"/><line x1="163" y1="37.37" x2="163" y2="82.63" stroke="#5EE7FF" stroke-width="1"/><line x1="164" y1="35.72" x2="164" y2="84.28" stroke="#5EE7FF" stroke-width="1"/><line x1="165" y1="52.49" x2="165" y2="67.51" stroke="#5EE7FF" stroke-width="1"/><line x1="166" y1="33.19" x2="166" y2="86.81" stroke="#5EE7FF" stroke-width="1"/><line x1="167" y1="36.94" x2="167" y2="83.06" stroke="#5EE7FF" stroke-width="1"/><line x1="168" y1="34.00" x2="168" y2="86.00" stroke="#5EE7FF" stroke-width="1"/><line x1="169" y1="31.11" x2="169" y2="88.89" stroke="#5EE7FF" stroke-width="1"/><line x1="170" y1="48.66" x2="170" y2="71.34" stroke="#5EE7FF" stroke-width="1"/><line x1="171" y1="37.49" x2="171" y2="82.51" stroke="#5EE7FF" stroke-width="1"/><line x1="172" y1="40.59" x2="172" y2="79.41" stroke="#5EE7FF" stroke-width="1"/><line x1="173" y1="41.57" x2="173" y2="78.43" stroke="#5EE7FF" stroke-width="1"/><line x1="174" y1="31.93" x2="174" y2="88.07" stroke="#5EE7FF" stroke-width="1"/><line x1="175" y1="41.35" x2="175" y2="78.65" stroke="#5EE7FF" stroke-width="1"/><line x1="176" y1="32.91" x2="176" y2="87.09" stroke="#5EE7FF" stroke-width="1"/><line x1="177" y1="34.25" x2="177" y2="85.75" stroke="#5EE7FF" stroke-width="1"/><line x1="178" y1="46.41" x2="178" y2="73.59" stroke="#5EE7FF" stroke-width="1"/><line x1="179" y1="36.36" x2="179" y2="83.64" stroke="#5EE7FF" stroke-width="1"/><line x1="180" y1="42.66" x2="180" y2="77.34" stroke="#5EE7FF" stroke-width="1"/><line x1="181" y1="32.33" x2="181" y2="87.67" stroke="#5EE7FF" stroke-width="1"/><line x1="182" y1="30.19" x2="182" y2="89.81" stroke="#5EE7FF" stroke-width="1"/><line x1="183" y1="42.35" x2="183" y2="77.65" stroke="#5EE7FF" stroke-width="1"/><line x1="184" y1="34.21" x2="184" y2="85.79" stroke="#5EE7FF" stroke-width="1"/><line x1="185" y1="43.99" x2="185" y2="76.01" stroke="#5EE7FF" stroke-width="1"/><line x1="186" y1="40.29" x2="186" y2="79.71" stroke="#5EE7FF" stroke-width="1"/><line x1="187" y1="34.79" x2="187" y2="85.21" stroke="#5EE7FF" stroke-width="1"/><line x1="188" y1="44.80" x2="188" y2="75.20" stroke="#5EE7FF" stroke-width="1"/><line x1="189" y1="30.07" x2="189" y2="89.93" stroke="#5EE7FF" stroke-width="1"/><line x1="190" y1="35.34" x2="190" y2="84.66" stroke="#5EE7FF" stroke-width="1"/><line x1="191" y1="40.29" x2="191" y2="79.71" stroke="#5EE7FF" stroke-width="1"/><line x1="192" y1="36.21" x2="192" y2="83.79" stroke="#5EE7FF" stroke-width="1"/><line x1="193" y1="49.00" x2="193" y2="71.00" stroke="#5EE7FF" stroke-width="1"/><line x1="194" y1="33.05" x2="194" y2="86.95" stroke="#5EE7FF" stroke-width="1"/><line x1="195" y1="34.25" x2="195" y2="85.75" stroke="#5EE7FF" stroke-width="1"/><line x1="196" y1="37.84" x2="196" y2="82.16" stroke="#5EE7FF" stroke-width="1"/><line x1="197" y1="31.50" x2="197" y2="88.50" stroke="#5EE7FF" stroke-width="1"/><line x1="198" y1="45.35" x2="198" y2="74.65" stroke="#5EE7FF" stroke-width="1"/><line x1="199" y1="38.32" x2="199" y2="81.68" stroke="#5EE7FF" stroke-width="1"/><line x1="200" y1="37.65" x2="200" y2="82.35" stroke="#5EE7FF" stroke-width="1"/><line x1="201" y1="46.96" x2="201" y2="73.04" stroke="#5EE7FF" stroke-width="1"/><line x1="202" y1="31.50" x2="202" y2="88.50" stroke="#5EE7FF" stroke-width="1"/><line x1="203" y1="36.48" x2="203" y2="83.52" stroke="#5EE7FF" stroke-width="1"/><line x1="204" y1="34.86" x2="204" y2="85.14" stroke="#5EE7FF" stroke-width="1"/><line x1="205" y1="33.05" x2="205" y2="86.95" stroke="#5EE7FF" stroke-width="1"/><line x1="206" y1="49.81" x2="206" y2="70.19" stroke="#5EE7FF" stroke-width="1"/><line x1="207" y1="36.21" x2="207" y2="83.79" stroke="#5EE7FF" stroke-width="1"/><line x1="208" y1="39.60" x2="208" y2="80.40" stroke="#5EE7FF" stroke-width="1"/><line x1="209" y1="37.34" x2="209" y2="82.66" stroke="#5EE7FF" stroke-width="1"/><line x1="210" y1="30.94" x2="210" y2="89.06" stroke="#5EE7FF" stroke-width="1"/><line x1="211" y1="46.50" x2="211" y2="73.50" stroke="#5EE7FF" stroke-width="1"/><line x1="212" y1="36.52" x2="212" y2="83.48" stroke="#5EE7FF" stroke-width="1"/><line x1="213" y1="40.45" x2="213" y2="79.55" stroke="#5EE7FF" stroke-width="1"/><line x1="214" y1="47.21" x2="214" y2="72.79" stroke="#5EE7FF" stroke-width="1"/><line x1="215" y1="36.92" x2="215" y2="83.08" stroke="#5EE7FF" stroke-width="1"/><line x1="216" y1="43.93" x2="216" y2="76.07" stroke="#5EE7FF" stroke-width="1"/><line x1="217" y1="34.13" x2="217" y2="85.87" stroke="#5EE7FF" stroke-width="1"/><line x1="218" y1="35.09" x2="218" y2="84.91" stroke="#5EE7FF" stroke-width="1"/><line x1="219" y1="46.60" x2="219" y2="73.40" stroke="#5EE7FF" stroke-width="1"/><line x1="220" y1="40.79" x2="220" y2="79.21" stroke="#5EE7FF" stroke-width="1"/><line x1="221" y1="48.68" x2="221" y2="71.32" stroke="#5EE7FF" stroke-width="1"/><line x1="222" y1="41.00" x2="222" y2="79.00" stroke="#5EE7FF" stroke-width="1"/><line x1="223" y1="38.81" x2="223" y2="81.19" stroke="#5EE7FF" stroke-width="1"/><line x1="224" y1="47.57" x2="224" y2="72.43" stroke="#5EE7FF" stroke-width="1"/><line x1="225" y1="39.04" x2="225" y2="80.96" stroke="#5EE7FF" stroke-width="1"/><line x1="226" y1="45.77" x2="226" y2="74.23" stroke="#5EE7FF" stroke-width="1"/><line x1="227" y1="47.31" x2="227" y2="72.69" stroke="#5EE7FF" stroke-width="1"/><line x1="228" y1="44.59" x2="228" y2="75.41" stroke="#5EE7FF" stroke-width="1"/><line x1="229" y1="52.12" x2="229" y2="67.88" stroke="#5EE7FF" stroke-width="1"/><line x1="230" y1="40.74" x2="230" y2="79.26" stroke="#5EE7FF" stroke-width="1"/><line x1="231" y1="42.63" x2="231" y2="77.37" stroke="#5EE7FF" stroke-width="1"/><line x1="232" y1="46.45" x2="232" y2="73.55" stroke="#5EE7FF" stroke-width="1"/><line x1="233" y1="43.52" x2="233" y2="76.48" stroke="#5EE7FF" stroke-width="1"/><line x1="234" y1="54.97" x2="234" y2="65.03" stroke="#5EE7FF" stroke-width="1"/><line x1="235" y1="46.38" x2="235" y2="73.62" stroke="#5EE7FF" stroke-width="1"/><line x1="236" y1="47.06" x2="236" y2="72.94" stroke="#5EE7FF" stroke-width="1"/><line x1="237" y1="50.63" x2="237" y2="69.37" stroke="#5EE7FF" stroke-width="1"/><line x1="238" y1="43.71" x2="238" y2="76.29" stroke="#5EE7FF" stroke-width="1"/><line x1="239" y1="50.85" x2="239" y2="69.15" stroke="#5EE7FF" stroke-width="1"/><line x1="240" y1="48.55" x2="240" y2="71.45" stroke="#5EE7FF" stroke-width="1"/><line x1="241" y1="48.22" x2="241" y2="71.78" stroke="#5EE7FF" stroke-width="1"/><line x1="242" y1="56.32" x2="242" y2="63.68" stroke="#5EE7FF" stroke-width="1"/><line x1="243" y1="48.83" x2="243" y2="71.17" stroke="#5EE7FF" stroke-width="1"/><line x1="244" y1="51.23" x2="244" y2="68.77" stroke="#5EE7FF" stroke-width="1"/><line x1="245" y1="49.19" x2="245" y2="70.81" stroke="#5EE7FF" stroke-width="1"/><line x1="246" y1="48.37" x2="246" y2="71.63" stroke="#5EE7FF" stroke-width="1"/><line x1="247" y1="55.66" x2="247" y2="64.34" stroke="#5EE7FF" stroke-width="1"/><line x1="248" y1="52.30" x2="248" y2="67.70" stroke="#5EE7FF" stroke-width="1"/><line x1="249" y1="54.48" x2="249" y2="65.52" stroke="#5EE7FF" stroke-width="1"/><line x1="250" y1="54.43" x2="250" y2="65.57" stroke="#5EE7FF" stroke-width="1"/><line x1="251" y1="51.84" x2="251" y2="68.16" stroke="#5EE7FF" stroke-width="1"/><line x1="252" y1="55.49" x2="252" y2="64.51" stroke="#5EE7FF" stroke-width="1"/><line x1="253" y1="53.09" x2="253" y2="66.91" stroke="#5EE7FF" stroke-width="1"/><line x1="254" y1="54.17" x2="254" y2="65.83" stroke="#5EE7FF" stroke-width="1"/><line x1="255" y1="57.08" x2="255" y2="62.92" stroke="#5EE7FF" stroke-width="1"/><line x1="256" y1="55.74" x2="256" y2="64.26" stroke="#5EE7FF" stroke-width="1"/><line x1="257" y1="57.38" x2="257" y2="62.62" stroke="#5EE7FF" stroke-width="1"/><line x1="258" y1="55.69" x2="258" y2="64.31" stroke="#5EE7FF" stroke-width="1"/><line x1="259" y1="55.65" x2="259" y2="64.35" stroke="#5EE7FF" stroke-width="1"/><line x1="260" y1="58.01" x2="260" y2="61.99" stroke="#5EE7FF" stroke-width="1"/><line x1="261" y1="57.46" x2="261" y2="62.54" stroke="#5EE7FF" stroke-width="1"/><line x1="262" y1="58.81" x2="262" y2="61.19" stroke="#5EE7FF" stroke-width="1"/><line x1="263" y1="58.98" x2="263" y2="61.02" stroke="#5EE7FF" stroke-width="1"/><line x1="264" y1="58.84" x2="264" y2="61.16" stroke="#5EE7FF" stroke-width="1"/><line x1="265" y1="59.63" x2="265" y2="60.37" stroke="#5EE7FF" stroke-width="1"/><line x1="266" y1="59.84" x2="266" y2="60.16" stroke="#5EE7FF" stroke-width="1"/><line x1="267" y1="60.00" x2="267" y2="60.00" stroke="#5EE7FF" stroke-width="1"/><line x1="268" y1="60.00" x2="268" y2="60.00" stroke="#5EE7FF" stroke-width="1"/><line x1="269" y1="60.00" x2="269" y2="60.00" stroke="#5EE7FF" stroke-width="1"/><line x1="270" y1="60.00" x2="270" y2="60.00" stroke="#5EE7FF" stroke-width="1"/><line x1="271" y1="60.00" x2="271" y2="60.00" stroke="#5EE7FF" stroke-width="1"/><line x1="272" y1="60.00" x2="272" y2="60.00" stroke="#5EE7FF" stroke-width="1"/><line x1="273" y1="60.00" x2="273" y2="60.00" stroke="#5EE7FF" stroke-width="1"/><line x1="274" y1="60.00" x2="274" y2="60.00" stroke="#5EE7FF" stroke-width="1"/><line x1="275" y1="60.00" x2="275" y2="60.00" stroke="#5EE7FF" stroke-width="1"/><line x1="276" y1="60.00" x2="276" y2="60.00" stroke="#5EE7FF" stroke-width="1"/><line x1="277" y1="60.00" x2="277" y2="60.00" stroke="#5EE7FF" stroke-width="1"/><line x1="278" y1="60.00" x2="278" y2="60.00" stroke="#5EE7FF" stroke-width="1"/><line x1="279" y1="60.00" x2="279" y2="60.00" stroke="#5EE7FF" stroke-width="1"/><line x1="280" y1="60.00" x2="280" y2="60.00" stroke="#5EE7FF" stroke-width="1"/><line x1="281" y1="60.00" x2="281" y2="60.00" stroke="#5EE7FF" stroke-width="1"/><line x1="282" y1="60.00" x2="282" y2="60.00" stroke="#5EE7FF" stroke-width="1"/><line x1="283" y1="60.00" x2="283" y2="60.00" stroke="#5EE7FF" stroke-width="1"/><line x1="284" y1="60.00" x2="284" y2="60.00" stroke="#5EE7FF" stroke-width="1"/><line x1="285" y1="60.00" x2="285" y2="60.00" stroke="#5EE7FF" stroke-width="1"/><line x1="286" y1="60.00" x2="286" y2="60.00" stroke="#5EE7FF" stroke-width="1"/><line x1="287" y1="60.00" x2="287" y2="60.00" stroke="#5EE7FF" stroke-width="1"/><line x1="288" y1="60.00" x2="288" y2="60.00" stroke="#5EE7FF" stroke-width="1"/><line x1="289" y1="60.00" x2="289" y2="60.00" stroke="#5EE7FF" stroke-width="1"/><line x1="290" y1="60.00" x2="290" y2="60.00" stroke="#5EE7FF" stroke-width="1"/><line x1="291" y1="60.00" x2="291" y2="60.00" stroke="#5EE7FF" stroke-width="1"/><line x1="292" y1="60.00" x2="292" y2="60.00" stroke="#5EE7FF" stroke-width="1"/><line x1="293" y1="60.00" x2="293" y2="60.00" stroke="#5EE7FF" stroke-width="1"/><line x1="294" y1="60.00" x2="294" y2="60.00" stroke="#5EE7FF" stroke-width="1"/><line x1="295" y1="60.00" x2="295" y2="60.00" stroke="#5EE7FF" stroke-width="1"/><line x1="296" y1="60.00" x2="296" y2="60.00" stroke="#5EE7FF" stroke-width="1"/><line x1="297" y1="60.00" x2="297" y2="60.00" stroke="#5EE7FF" stroke-width="1"/><line x1="298" y1="60.00" x2="298" y2="60.00" stroke="#5EE7FF" stroke-width="1"/><line x1="299" y1="60.00" x2="299" y2="60.00" stroke="#5EE7FF" stroke-width="1"/><line x1="300" y1="60.00" x2="300" y2="60.00" stroke="#5EE7FF" stroke-width="1"/><line x1="301" y1="60.00" x2="301" y2="60.00" stroke="#5EE7FF" stroke-width="1"/><line x1="302" y1="60.00" x2="302" y2="60.00" stroke="#5EE7FF" stroke-width="1"/><line x1="303" y1="60.00" x2="303" y2="60.00" stroke="#5EE7FF" stroke-width="1"/><line x1="304" y1="60.00" x2="304" y2="60.00" stroke="#5EE7FF" stroke-width="1"/><line x1="305" y1="60.00" x2="305" y2="60.00" stroke="#5EE7FF" stroke-width="1"/><line x1="306" y1="60.00" x2="306" y2="60.00" stroke="#5EE7FF" stroke-width="1"/><line x1="307" y1="60.00" x2="307" y2="60.00" stroke="#5EE7FF" stroke-width="1"/><line x1="308" y1="60.00" x2="308" y2="60.00" stroke="#5EE7FF" stroke-width="1"/><line x1="309" y1="58.39" x2="309" y2="61.61" stroke="#5EE7FF" stroke-width="1"/><line x1="310" y1="57.85" x2="310" y2="62.15" stroke="#5EE7FF" stroke-width="1"/><line x1="311" y1="57.69" x2="311" y2="62.31" stroke="#5EE7FF" stroke-width="1"/><line x1="312" y1="56.29" x2="312" y2="63.71" stroke="#5EE7FF" stroke-width="1"/><line x1="313" y1="55.85" x2="313" y2="64.15" stroke="#5EE7FF" stroke-width="1"/><line x1="314" y1="47.14" x2="314" y2="72.86" stroke="#5EE7FF" stroke-width="1"/><line x1="315" y1="42.36" x2="315" y2="77.64" stroke="#5EE7FF" stroke-width="1"/><line x1="316" y1="42.39" x2="316" y2="77.61" stroke="#5EE7FF" stroke-width="1"/><line x1="317" y1="44.65" x2="317" y2="75.35" stroke="#5EE7FF" stroke-width="1"/><line x1="318" y1="53.45" x2="318" y2="66.55" stroke="#5EE7FF" stroke-width="1"/><line x1="319" y1="45.56" x2="319" y2="74.44" stroke="#5EE7FF" stroke-width="1"/><line x1="320" y1="43.13" x2="320" y2="76.87" stroke="#5EE7FF" stroke-width="1"/><line x1="321" y1="34.17" x2="321" y2="85.83" stroke="#5EE7FF" stroke-width="1"/><line x1="322" y1="33.56" x2="322" y2="86.44" stroke="#5EE7FF" stroke-width="1"/><line x1="323" y1="37.73" x2="323" y2="82.27" stroke="#5EE7FF" stroke-width="1"/><line x1="324" y1="45.76" x2="324" y2="74.24" stroke="#5EE7FF" stroke-width="1"/><line x1="325" y1="49.88" x2="325" y2="70.12" stroke="#5EE7FF" stroke-width="1"/><line x1="326" y1="39.20" x2="326" y2="80.80" stroke="#5EE7FF" stroke-width="1"/><line x1="327" y1="39.18" x2="327" y2="80.82" stroke="#5EE7FF" stroke-width="1"/><line x1="328" y1="34.58" x2="328" y2="85.42" stroke="#5EE7FF" stroke-width="1"/><line x1="329" y1="38.70" x2="329" y2="81.30" stroke="#5EE7FF" stroke-width="1"/><line x1="330" y1="43.80" x2="330" y2="76.20" stroke="#5EE7FF" stroke-width="1"/><line x1="331" y1="49.32" x2="331" y2="70.68" stroke="#5EE7FF" stroke-width="1"/><line x1="332" y1="46.30" x2="332" y2="73.70" stroke="#5EE7FF" stroke-width="1"/><line x1="333" y1="34.32" x2="333" y2="85.68" stroke="#5EE7FF" stroke-width="1"/><line x1="334" y1="31.44" x2="334" y2="88.56" stroke="#5EE7FF" stroke-width="1"/><line x1="335" y1="33.75" x2="335" y2="86.25" stroke="#5EE7FF" stroke-width="1"/><line x1="336" y1="46.34" x2="336" y2="73.66" stroke="#5EE7FF" stroke-width="1"/><line x1="337" y1="49.58" x2="337" y2="70.42" stroke="#5EE7FF" stroke-width="1"/><line x1="338" y1="52.54" x2="338" y2="67.46" stroke="#5EE7FF" stroke-width="1"/><line x1="339" y1="38.66" x2="339" y2="81.34" stroke="#5EE7FF" stroke-width="1"/><line x1="340" y1="31.71" x2="340" y2="88.29" stroke="#5EE7FF" stroke-width="1"/><line x1="341" y1="30.53" x2="341" y2="89.47" stroke="#5EE7FF" stroke-width="1"/><line x1="342" y1="39.24" x2="342" y2="80.76" stroke="#5EE7FF" stroke-width="1"/><line x1="343" y1="49.93" x2="343" y2="70.07" stroke="#5EE7FF" stroke-width="1"/><line x1="344" y1="53.14" x2="344" y2="66.86" stroke="#5EE7FF" stroke-width="1"/><line x1="345" y1="44.25" x2="345" y2="75.75" stroke="#5EE7FF" stroke-width="1"/><line x1="346" y1="35.70" x2="346" y2="84.30" stroke="#5EE7FF" stroke-width="1"/><line x1="347" y1="30.98" x2="347" y2="89.02" stroke="#5EE7FF" stroke-width="1"/><line x1="348" y1="31.88" x2="348" y2="88.12" stroke="#5EE7FF" stroke-width="1"/><line x1="349" y1="43.85" x2="349" y2="76.15" stroke="#5EE7FF" stroke-width="1"/><line x1="350" y1="51.92" x2="350" y2="68.08" stroke="#5EE7FF" stroke-width="1"/><line x1="351" y1="45.46" x2="351" y2="74.54" stroke="#5EE7FF" stroke-width="1"/><line x1="352" y1="40.93" x2="352" y2="79.07" stroke="#5EE7FF" stroke-width="1"/><line x1="353" y1="31.91" x2="353" y2="88.09" stroke="#5EE7FF" stroke-width="1"/><line x1="354" y1="37.04" x2="354" y2="82.96" stroke="#5EE7FF" stroke-width="1"/><line x1="355" y1="38.31" x2="355" y2="81.69" stroke="#5EE7FF" stroke-width="1"/><line x1="356" y1="47.33" x2="356" y2="72.67" stroke="#5EE7FF" stroke-width="1"/><line x1="357" y1="48.26" x2="357" y2="71.74" stroke="#5EE7FF" stroke-width="1"/><line x1="358" y1="41.35" x2="358" y2="78.65" stroke="#5EE7FF" stroke-width="1"/><line x1="359" y1="37.82" x2="359" y2="82.18" stroke="#5EE7FF" stroke-width="1"/><line x1="360" y1="34.07" x2="360" y2="85.93" stroke="#5EE7FF" stroke-width="1"/><line x1="361" y1="44.42" x2="361" y2="75.58" stroke="#5EE7FF" stroke-width="1"/><line x1="362" y1="41.46" x2="362" y2="78.54" stroke="#5EE7FF" stroke-width="1"/><line x1="363" y1="54.62" x2="363" y2="65.38" stroke="#5EE7FF" stroke-width="1"/><line x1="364" y1="40.39" x2="364" y2="79.61" stroke="#5EE7FF" stroke-width="1"/><line x1="365" y1="35.66" x2="365" y2="84.34" stroke="#5EE7FF" stroke-width="1"/><line x1="366" y1="33.06" x2="366" y2="86.94" stroke="#5EE7FF" stroke-width="1"/><line x1="367" y1="38.82" x2="367" y2="81.18" stroke="#5EE7FF" stroke-width="1"/><line x1="368" y1="47.92" x2="368" y2="72.08" stroke="#5EE7FF" stroke-width="1"/><line x1="369" y1="48.76" x2="369" y2="71.24" stroke="#5EE7FF" stroke-width="1"/><line x1="370" y1="46.16" x2="370" y2="73.84" stroke="#5EE7FF" stroke-width="1"/><line x1="371" y1="37.32" x2="371" y2="82.68" stroke="#5EE7FF" stroke-width="1"/><line x1="372" y1="31.79" x2="372" y2="88.21" stroke="#5EE7FF" stroke-width="1"/><line x1="373" y1="31.61" x2="373" y2="88.39" stroke="#5EE7FF" stroke-width="1"/><line x1="374" y1="42.00" x2="374" y2="78.00" stroke="#5EE7FF" stroke-width="1"/><line x1="375" y1="52.40" x2="375" y2="67.60" stroke="#5EE7FF" stroke-width="1"/><line x1="376" y1="52.40" x2="376" y2="67.60" stroke="#5EE7FF" stroke-width="1"/><line x1="377" y1="42.74" x2="377" y2="77.26" stroke="#5EE7FF" stroke-width="1"/><line x1="378" y1="31.61" x2="378" y2="88.39" stroke="#5EE7FF" stroke-width="1"/><line x1="379" y1="31.79" x2="379" y2="88.21" stroke="#5EE7FF" stroke-width="1"/><line x1="380" y1="36.66" x2="380" y2="83.34" stroke="#5EE7FF" stroke-width="1"/><line x1="381" y1="45.38" x2="381" y2="74.62" stroke="#5EE7FF" stroke-width="1"/><line x1="382" y1="48.76" x2="382" y2="71.24" stroke="#5EE7FF" stroke-width="1"/><line x1="383" y1="48.73" x2="383" y2="71.27" stroke="#5EE7FF" stroke-width="1"/><line x1="384" y1="38.92" x2="384" y2="81.08" stroke="#5EE7FF" stroke-width="1"/><line x1="385" y1="33.06" x2="385" y2="86.94" stroke="#5EE7FF" stroke-width="1"/><line x1="386" y1="35.66" x2="386" y2="84.34" stroke="#5EE7FF" stroke-width="1"/><line x1="387" y1="39.69" x2="387" y2="80.31" stroke="#5EE7FF" stroke-width="1"/><line x1="388" y1="53.78" x2="388" y2="66.22" stroke="#5EE7FF" stroke-width="1"/><line x1="389" y1="42.19" x2="389" y2="77.81" stroke="#5EE7FF" stroke-width="1"/><line x1="390" y1="41.46" x2="390" y2="78.54" stroke="#5EE7FF" stroke-width="1"/><line x1="391" y1="34.07" x2="391" y2="85.93" stroke="#5EE7FF" stroke-width="1"/><line x1="392" y1="37.15" x2="392" y2="82.85" stroke="#5EE7FF" stroke-width="1"/><line x1="393" y1="41.35" x2="393" y2="78.65" stroke="#5EE7FF" stroke-width="1"/><line x1="394" y1="47.46" x2="394" y2="72.54" stroke="#5EE7FF" stroke-width="1"/><line x1="395" y1="48.13" x2="395" y2="71.87" stroke="#5EE7FF" stroke-width="1"/><line x1="396" y1="38.99" x2="396" y2="81.01" stroke="#5EE7FF" stroke-width="1"/><line x1="397" y1="37.70" x2="397" y2="82.30" stroke="#5EE7FF" stroke-width="1"/><line x1="398" y1="31.35" x2="398" y2="88.65" stroke="#5EE7FF" stroke-width="1"/><line x1="399" y1="40.21" x2="399" y2="79.79" stroke="#5EE7FF" stroke-width="1"/><line x1="400" y1="45.46" x2="400" y2="74.54" stroke="#5EE7FF" stroke-width="1"/><line x1="401" y1="51.09" x2="401" y2="68.91" stroke="#5EE7FF" stroke-width="1"/><line x1="402" y1="44.62" x2="402" y2="75.38" stroke="#5EE7FF" stroke-width="1"/><line x1="403" y1="32.45" x2="403" y2="87.55" stroke="#5EE7FF" stroke-width="1"/><line x1="404" y1="30.98" x2="404" y2="89.02" stroke="#5EE7FF" stroke-width="1"/><line x1="405" y1="35.07" x2="405" y2="84.93" stroke="#5EE7FF" stroke-width="1"/><line x1="406" y1="43.49" x2="406" y2="76.51" stroke="#5EE7FF" stroke-width="1"/><line x1="407" y1="53.14" x2="407" y2="66.86" stroke="#5EE7FF" stroke-width="1"/><line x1="408" y1="50.75" x2="408" y2="69.25" stroke="#5EE7FF" stroke-width="1"/><line x1="409" y1="39.24" x2="409" y2="80.76" stroke="#5EE7FF" stroke-width="1"/><line x1="410" y1="30.53" x2="410" y2="89.47" stroke="#5EE7FF" stroke-width="1"/><line x1="411" y1="31.71" x2="411" y2="88.29" stroke="#5EE7FF" stroke-width="1"/><line x1="412" y1="37.98" x2="412" y2="82.02" stroke="#5EE7FF" stroke-width="1"/><line x1="413" y1="51.71" x2="413" y2="68.29" stroke="#5EE7FF" stroke-width="1"/><line x1="414" y1="49.58" x2="414" y2="70.42" stroke="#5EE7FF" stroke-width="1"/><line x1="415" y1="47.13" x2="415" y2="72.87" stroke="#5EE7FF" stroke-width="1"/><line x1="416" y1="34.35" x2="416" y2="85.65" stroke="#5EE7FF" stroke-width="1"/><line x1="417" y1="31.44" x2="417" y2="88.56" stroke="#5EE7FF" stroke-width="1"/><line x1="418" y1="34.32" x2="418" y2="85.68" stroke="#5EE7FF" stroke-width="1"/><line x1="419" y1="45.51" x2="419" y2="74.49" stroke="#5EE7FF" stroke-width="1"/><line x1="420" y1="50.14" x2="420" y2="69.86" stroke="#5EE7FF" stroke-width="1"/><line x1="421" y1="43.80" x2="421" y2="76.20" stroke="#5EE7FF" stroke-width="1"/><line x1="422" y1="39.40" x2="422" y2="80.60" stroke="#5EE7FF" stroke-width="1"/><line x1="423" y1="34.58" x2="423" y2="85.42" stroke="#5EE7FF" stroke-width="1"/><line x1="424" y1="38.49" x2="424" y2="81.51" stroke="#5EE7FF" stroke-width="1"/><line x1="425" y1="39.20" x2="425" y2="80.80" stroke="#5EE7FF" stroke-width="1"/><line x1="426" y1="49.07" x2="426" y2="70.93" stroke="#5EE7FF" stroke-width="1"/><line x1="427" y1="46.54" x2="427" y2="73.46" stroke="#5EE7FF" stroke-width="1"/><line x1="428" y1="37.73" x2="428" y2="82.27" stroke="#5EE7FF" stroke-width="1"/><line x1="429" y1="36.39" x2="429" y2="83.61" stroke="#5EE7FF" stroke-width="1"/><line x1="430" y1="33.56" x2="430" y2="86.44" stroke="#5EE7FF" stroke-width="1"/><line x1="431" y1="43.13" x2="431" y2="76.87" stroke="#5EE7FF" stroke-width="1"/><line x1="432" y1="45.34" x2="432" y2="74.66" stroke="#5EE7FF" stroke-width="1"/><line x1="433" y1="52.80" x2="433" y2="67.20" stroke="#5EE7FF" stroke-width="1"/><line x1="434" y1="39.57" x2="434" y2="80.43" stroke="#5EE7FF" stroke-width="1"/><line x1="435" y1="34.84" x2="435" y2="85.16" stroke="#5EE7FF" stroke-width="1"/><line x1="436" y1="32.58" x2="436" y2="87.42" stroke="#5EE7FF" stroke-width="1"/><line x1="437" y1="36.34" x2="437" y2="83.66" stroke="#5EE7FF" stroke-width="1"/><line x1="438" y1="49.67" x2="438" y2="70.33" stroke="#5EE7FF" stroke-width="1"/><line x1="439" y1="48.89" x2="439" y2="71.11" stroke="#5EE7FF" stroke-width="1"/><line x1="440" y1="47.62" x2="440" y2="72.38" stroke="#5EE7FF" stroke-width="1"/><line x1="441" y1="35.90" x2="441" y2="84.10" stroke="#5EE7FF" stroke-width="1"/><line x1="442" y1="28.56" x2="442" y2="91.44" stroke="#5EE7FF" stroke-width="1"/><line x1="443" y1="31.70" x2="443" y2="88.30" stroke="#5EE7FF" stroke-width="1"/><line x1="444" y1="43.62" x2="444" y2="76.38" stroke="#5EE7FF" stroke-width="1"/><line x1="445" y1="52.18" x2="445" y2="67.82" stroke="#5EE7FF" stroke-width="1"/><line x1="446" y1="48.89" x2="446" y2="71.11" stroke="#5EE7FF" stroke-width="1"/><line x1="447" y1="41.16" x2="447" y2="78.84" stroke="#5EE7FF" stroke-width="1"/><line x1="448" y1="33.16" x2="448" y2="86.84" stroke="#5EE7FF" stroke-width="1"/><line x1="449" y1="32.58" x2="449" y2="87.42" stroke="#5EE7FF" stroke-width="1"/><line x1="450" y1="38.10" x2="450" y2="81.90" stroke="#5EE7FF" stroke-width="1"/><line x1="451" y1="47.08" x2="451" y2="72.92" stroke="#5EE7FF" stroke-width="1"/><line x1="452" y1="48.51" x2="452" y2="71.49" stroke="#5EE7FF" stroke-width="1"/><line x1="453" y1="45.34" x2="453" y2="74.66" stroke="#5EE7FF" stroke-width="1"/><line x1="454" y1="38.03" x2="454" y2="81.97" stroke="#5EE7FF" stroke-width="1"/><line x1="455" y1="33.56" x2="455" y2="86.44" stroke="#5EE7FF" stroke-width="1"/><line x1="456" y1="37.73" x2="456" y2="82.27" stroke="#5EE7FF" stroke-width="1"/><line x1="457" y1="41.23" x2="457" y2="78.77" stroke="#5EE7FF" stroke-width="1"/><line x1="458" y1="53.19" x2="458" y2="66.81" stroke="#5EE7FF" stroke-width="1"/><line x1="459" y1="40.62" x2="459" y2="79.38" stroke="#5EE7FF" stroke-width="1"/><line x1="460" y1="39.20" x2="460" y2="80.80" stroke="#5EE7FF" stroke-width="1"/><line x1="461" y1="34.58" x2="461" y2="85.42" stroke="#5EE7FF" stroke-width="1"/><line x1="462" y1="34.77" x2="462" y2="85.23" stroke="#5EE7FF" stroke-width="1"/><line x1="463" y1="43.80" x2="463" y2="76.20" stroke="#5EE7FF" stroke-width="1"/><line x1="464" y1="44.56" x2="464" y2="75.44" stroke="#5EE7FF" stroke-width="1"/><line x1="465" y1="48.00" x2="465" y2="72.00" stroke="#5EE7FF" stroke-width="1"/><line x1="466" y1="37.52" x2="466" y2="82.48" stroke="#5EE7FF" stroke-width="1"/><line x1="467" y1="34.32" x2="467" y2="85.68" stroke="#5EE7FF" stroke-width="1"/><line x1="468" y1="31.44" x2="468" y2="88.56" stroke="#5EE7FF" stroke-width="1"/><line x1="469" y1="41.77" x2="469" y2="78.23" stroke="#5EE7FF" stroke-width="1"/><line x1="470" y1="49.58" x2="470" y2="70.42" stroke="#5EE7FF" stroke-width="1"/><line x1="471" y1="52.89" x2="471" y2="67.11" stroke="#5EE7FF" stroke-width="1"/><line x1="472" y1="42.98" x2="472" y2="77.02" stroke="#5EE7FF" stroke-width="1"/><line x1="473" y1="34.65" x2="473" y2="85.35" stroke="#5EE7FF" stroke-width="1"/><line x1="474" y1="30.53" x2="474" y2="89.47" stroke="#5EE7FF" stroke-width="1"/><line x1="475" y1="36.45" x2="475" y2="83.55" stroke="#5EE7FF" stroke-width="1"/><line x1="476" y1="45.14" x2="476" y2="74.86" stroke="#5EE7FF" stroke-width="1"/><line x1="477" y1="53.14" x2="477" y2="66.86" stroke="#5EE7FF" stroke-width="1"/><line x1="478" y1="48.98" x2="478" y2="71.02" stroke="#5EE7FF" stroke-width="1"/><line x1="479" y1="39.73" x2="479" y2="80.27" stroke="#5EE7FF" stroke-width="1"/><line x1="480" y1="30.98" x2="480" y2="89.02" stroke="#5EE7FF" stroke-width="1"/><line x1="481" y1="31.88" x2="481" y2="88.12" stroke="#5EE7FF" stroke-width="1"/><line x1="482" y1="39.47" x2="482" y2="80.53" stroke="#5EE7FF" stroke-width="1"/><line x1="483" y1="52.80" x2="483" y2="67.20" stroke="#5EE7FF" stroke-width="1"/><line x1="484" y1="45.46" x2="484" y2="74.54" stroke="#5EE7FF" stroke-width="1"/><line x1="485" y1="45.43" x2="485" y2="74.57" stroke="#5EE7FF" stroke-width="1"/><line x1="486" y1="33.06" x2="486" y2="86.94" stroke="#5EE7FF" stroke-width="1"/><line x1="487" y1="31.91" x2="487" y2="88.09" stroke="#5EE7FF" stroke-width="1"/><line x1="488" y1="38.31" x2="488" y2="81.69" stroke="#5EE7FF" stroke-width="1"/><line x1="489" y1="43.45" x2="489" y2="76.55" stroke="#5EE7FF" stroke-width="1"/><line x1="490" y1="48.38" x2="490" y2="71.62" stroke="#5EE7FF" stroke-width="1"/><line x1="491" y1="41.35" x2="491" y2="78.65" stroke="#5EE7FF" stroke-width="1"/><line x1="492" y1="38.59" x2="492" y2="81.41" stroke="#5EE7FF" stroke-width="1"/><line x1="493" y1="34.07" x2="493" y2="85.93" stroke="#5EE7FF" stroke-width="1"/><line x1="494" y1="39.99" x2="494" y2="80.01" stroke="#5EE7FF" stroke-width="1"/><line x1="495" y1="41.46" x2="495" y2="78.54" stroke="#5EE7FF" stroke-width="1"/><line x1="496" y1="50.83" x2="496" y2="69.17" stroke="#5EE7FF" stroke-width="1"/><line x1="497" y1="44.85" x2="497" y2="75.15" stroke="#5EE7FF" stroke-width="1"/><line x1="498" y1="35.66" x2="498" y2="84.34" stroke="#5EE7FF" stroke-width="1"/><line x1="499" y1="33.06" x2="499" y2="86.94" stroke="#5EE7FF" stroke-width="1"/><line x1="500" y1="34.88" x2="500" y2="85.12" stroke="#5EE7FF" stroke-width="1"/><line x1="501" y1="43.25" x2="501" y2="76.75" stroke="#5EE7FF" stroke-width="1"/><line x1="502" y1="48.76" x2="502" y2="71.24" stroke="#5EE7FF" stroke-width="1"/><line x1="503" y1="51.01" x2="503" y2="68.99" stroke="#5EE7FF" stroke-width="1"/><line x1="504" y1="41.50" x2="504" y2="78.50" stroke="#5EE7FF" stroke-width="1"/><line x1="505" y1="31.79" x2="505" y2="88.21" stroke="#5EE7FF" stroke-width="1"/><line x1="506" y1="31.61" x2="506" y2="88.39" stroke="#5EE7FF" stroke-width="1"/><line x1="507" y1="37.77" x2="507" y2="82.23" stroke="#5EE7FF" stroke-width="1"/><line x1="508" y1="51.45" x2="508" y2="68.55" stroke="#5EE7FF" stroke-width="1"/><line x1="509" y1="53.15" x2="509" y2="66.85" stroke="#5EE7FF" stroke-width="1"/><line x1="510" y1="47.38" x2="510" y2="72.62" stroke="#5EE7FF" stroke-width="1"/><line x1="511" y1="34.55" x2="511" y2="85.45" stroke="#5EE7FF" stroke-width="1"/><line x1="512" y1="31.61" x2="512" y2="88.39" stroke="#5EE7FF" stroke-width="1"/><line x1="513" y1="32.94" x2="513" y2="87.06" stroke="#5EE7FF" stroke-width="1"/><line x1="514" y1="43.09" x2="514" y2="76.91" stroke="#5EE7FF" stroke-width="1"/><line x1="515" y1="50.39" x2="515" y2="69.61" stroke="#5EE7FF" stroke-width="1"/><line x1="516" y1="48.76" x2="516" y2="71.24" stroke="#5EE7FF" stroke-width="1"/><line x1="517" y1="39.61" x2="517" y2="80.39" stroke="#5EE7FF" stroke-width="1"/><line x1="518" y1="33.06" x2="518" y2="86.94" stroke="#5EE7FF" stroke-width="1"/><line x1="519" y1="38.20" x2="519" y2="81.80" stroke="#5EE7FF" stroke-width="1"/><line x1="520" y1="35.66" x2="520" y2="84.34" stroke="#5EE7FF" stroke-width="1"/><line x1="521" y1="48.81" x2="521" y2="71.19" stroke="#5EE7FF" stroke-width="1"/><line x1="522" y1="46.79" x2="522" y2="73.21" stroke="#5EE7FF" stroke-width="1"/><line x1="523" y1="41.46" x2="523" y2="78.54" stroke="#5EE7FF" stroke-width="1"/><line x1="524" y1="36.59" x2="524" y2="83.41" stroke="#5EE7FF" stroke-width="1"/><line x1="525" y1="34.07" x2="525" y2="85.93" stroke="#5EE7FF" stroke-width="1"/><line x1="526" y1="41.35" x2="526" y2="78.65" stroke="#5EE7FF" stroke-width="1"/><line x1="527" y1="42.82" x2="527" y2="77.18" stroke="#5EE7FF" stroke-width="1"/><line x1="528" y1="52.49" x2="528" y2="67.51" stroke="#5EE7FF" stroke-width="1"/><line x1="529" y1="43.34" x2="529" y2="76.66" stroke="#5EE7FF" stroke-width="1"/><line x1="530" y1="38.31" x2="530" y2="81.69" stroke="#5EE7FF" stroke-width="1"/><line x1="531" y1="31.35" x2="531" y2="88.65" stroke="#5EE7FF" stroke-width="1"/><line x1="532" y1="36.14" x2="532" y2="83.86" stroke="#5EE7FF" stroke-width="1"/><line x1="533" y1="45.46" x2="533" y2="74.54" stroke="#5EE7FF" stroke-width="1"/><line x1="534" y1="46.24" x2="534" y2="73.76" stroke="#5EE7FF" stroke-width="1"/><line x1="535" y1="49.37" x2="535" y2="70.63" stroke="#5EE7FF" stroke-width="1"/><line x1="536" y1="36.10" x2="536" y2="83.90" stroke="#5EE7FF" stroke-width="1"/><line x1="537" y1="30.98" x2="537" y2="89.02" stroke="#5EE7FF" stroke-width="1"/><line x1="538" y1="31.53" x2="538" y2="88.47" stroke="#5EE7FF" stroke-width="1"/><line x1="539" y1="43.38" x2="539" y2="76.62" stroke="#5EE7FF" stroke-width="1"/><line x1="540" y1="53.11" x2="540" y2="66.89" stroke="#5EE7FF" stroke-width="1"/><line x1="541" y1="53.14" x2="541" y2="66.86" stroke="#5EE7FF" stroke-width="1"/><line x1="542" y1="41.38" x2="542" y2="78.62" stroke="#5EE7FF" stroke-width="1"/><line x1="543" y1="33.34" x2="543" y2="86.66" stroke="#5EE7FF" stroke-width="1"/><line x1="544" y1="30.53" x2="544" y2="89.47" stroke="#5EE7FF" stroke-width="1"/><line x1="545" y1="35.36" x2="545" y2="84.64" stroke="#5EE7FF" stroke-width="1"/><line x1="546" y1="46.83" x2="546" y2="73.17" stroke="#5EE7FF" stroke-width="1"/><line x1="547" y1="49.58" x2="547" y2="70.42" stroke="#5EE7FF" stroke-width="1"/><line x1="548" y1="47.25" x2="548" y2="72.75" stroke="#5EE7FF" stroke-width="1"/><line x1="549" y1="38.24" x2="549" y2="81.76" stroke="#5EE7FF" stroke-width="1"/><line x1="550" y1="31.44" x2="550" y2="88.56" stroke="#5EE7FF" stroke-width="1"/><line x1="551" y1="34.32" x2="551" y2="85.68" stroke="#5EE7FF" stroke-width="1"/><line x1="552" y1="41.00" x2="552" y2="79.00" stroke="#5EE7FF" stroke-width="1"/><line x1="553" y1="50.44" x2="553" y2="69.56" stroke="#5EE7FF" stroke-width="1"/><line x1="554" y1="43.80" x2="554" y2="76.20" stroke="#5EE7FF" stroke-width="1"/><line x1="555" y1="43.77" x2="555" y2="76.23" stroke="#5EE7FF" stroke-width="1"/><line x1="556" y1="34.77" x2="556" y2="85.23" stroke="#5EE7FF" stroke-width="1"/><line x1="557" y1="34.58" x2="557" y2="85.42" stroke="#5EE7FF" stroke-width="1"/><line x1="558" y1="39.20" x2="558" y2="80.80" stroke="#5EE7FF" stroke-width="1"/><line x1="559" y1="44.33" x2="559" y2="75.67" stroke="#5EE7FF" stroke-width="1"/><line x1="560" y1="51.40" x2="560" y2="68.60" stroke="#5EE7FF" stroke-width="1"/><line x1="561" y1="37.73" x2="561" y2="82.27" stroke="#5EE7FF" stroke-width="1"/><line x1="562" y1="40.48" x2="562" y2="79.52" stroke="#5EE7FF" stroke-width="1"/><line x1="563" y1="33.56" x2="563" y2="86.44" stroke="#5EE7FF" stroke-width="1"/><line x1="564" y1="41.55" x2="564" y2="78.45" stroke="#5EE7FF" stroke-width="1"/><line x1="565" y1="45.34" x2="565" y2="74.66" stroke="#5EE7FF" stroke-width="1"/><line x1="566" y1="52.63" x2="566" y2="67.37" stroke="#5EE7FF" stroke-width="1"/><line x1="567" y1="43.21" x2="567" y2="76.79" stroke="#5EE7FF" stroke-width="1"/><line x1="568" y1="34.84" x2="568" y2="85.16" stroke="#5EE7FF" stroke-width="1"/><line x1="569" y1="32.58" x2="569" y2="87.42" stroke="#5EE7FF" stroke-width="1"/><line x1="570" y1="35.07" x2="570" y2="84.93" stroke="#5EE7FF" stroke-width="1"/><line x1="571" y1="44.99" x2="571" y2="75.01" stroke="#5EE7FF" stroke-width="1"/><line x1="572" y1="49.23" x2="572" y2="70.77" stroke="#5EE7FF" stroke-width="1"/><line x1="573" y1="49.83" x2="573" y2="70.17" stroke="#5EE7FF" stroke-width="1"/><line x1="574" y1="41.27" x2="574" y2="78.73" stroke="#5EE7FF" stroke-width="1"/><line x1="575" y1="31.09" x2="575" y2="88.91" stroke="#5EE7FF" stroke-width="1"/><line x1="576" y1="30.63" x2="576" y2="89.37" stroke="#5EE7FF" stroke-width="1"/><line x1="577" y1="41.26" x2="577" y2="78.74" stroke="#5EE7FF" stroke-width="1"/><line x1="578" y1="49.84" x2="578" y2="70.16" stroke="#5EE7FF" stroke-width="1"/><line x1="579" y1="50.52" x2="579" y2="69.48" stroke="#5EE7FF" stroke-width="1"/><line x1="580" y1="48.08" x2="580" y2="71.92" stroke="#5EE7FF" stroke-width="1"/><line x1="581" y1="39.12" x2="581" y2="80.88" stroke="#5EE7FF" stroke-width="1"/><line x1="582" y1="37.08" x2="582" y2="82.92" stroke="#5EE7FF" stroke-width="1"/><line x1="583" y1="39.42" x2="583" y2="80.58" stroke="#5EE7FF" stroke-width="1"/><line x1="584" y1="46.21" x2="584" y2="73.79" stroke="#5EE7FF" stroke-width="1"/><line x1="585" y1="55.16" x2="585" y2="64.84" stroke="#5EE7FF" stroke-width="1"/><line x1="586" y1="49.15" x2="586" y2="70.85" stroke="#5EE7FF" stroke-width="1"/><line x1="587" y1="47.21" x2="587" y2="72.79" stroke="#5EE7FF" stroke-width="1"/><line x1="588" y1="40.59" x2="588" y2="79.41" stroke="#5EE7FF" stroke-width="1"/><line x1="589" y1="45.64" x2="589" y2="74.36" stroke="#5EE7FF" stroke-width="1"/><line x1="590" y1="44.46" x2="590" y2="75.54" stroke="#5EE7FF" stroke-width="1"/><line x1="591" y1="53.81" x2="591" y2="66.19" stroke="#5EE7FF" stroke-width="1"/><line x1="592" y1="50.58" x2="592" y2="69.42" stroke="#5EE7FF" stroke-width="1"/><line x1="593" y1="46.73" x2="593" y2="73.27" stroke="#5EE7FF" stroke-width="1"/><line x1="594" y1="44.52" x2="594" y2="75.48" stroke="#5EE7FF" stroke-width="1"/><line x1="595" y1="44.09" x2="595" y2="75.91" stroke="#5EE7FF" stroke-width="1"/><line x1="596" y1="50.08" x2="596" y2="69.92" stroke="#5EE7FF" stroke-width="1"/><line x1="597" y1="50.92" x2="597" y2="69.08" stroke="#5EE7FF" stroke-width="1"/><line x1="598" y1="55.45" x2="598" y2="64.55" stroke="#5EE7FF" stroke-width="1"/><line x1="599" y1="50.51" x2="599" y2="69.49" stroke="#5EE7FF" stroke-width="1"/></svg>