<svg xmlns="http://www.w3.org/2000/svg" width="600" height="120" viewBox="0 0 600 120"><rect width="600" height="120" rx="12" fill="#06090E"/><line x1="0" y1="60" x2="600" y2="60" stroke="#173042" stroke-width="1"/><line x1="0" y1="59.54" x2="0" y2="60.46" stroke="#5EE7FF" stroke-width="1"/><line x1="1" y1="59.54" x2="1" y2="60.46" stroke="#5EE7FF" stroke-width="1"/><line x1="2" y1="58.49" x2="2" y2="61.51" stroke="#5EE7FF" stroke-width="1"/><line x1="3" y1="56.34" x2="3" y2="63.66" stroke="#5EE7FF" stroke-width="1"/><line x1="4" y1="56.62" x2="4" y2="63.38" stroke="#5EE7FF" stroke-width="1"/><line x1="5" y1="58.43" x2="5" y2="61.57" stroke="#5EE7FF" stroke-width="1"/><line x1="6" y1="55.38" x2="6" y2="64.62" stroke="#5EE7FF" stroke-width="1"/><line x1="7" y1="52.77" x2="7" y2="67.23" stroke="#5EE7FF" stroke-width="1"/><line x1="8" y1="54.41" x2="8" y2="65.59" stroke="#5EE7FF" stroke-width="1"/><line x1="9" y1="57.16" x2="9" y2="62.84" stroke="#5EE7FF" stroke-width="1"/><line x1="10" y1="51.19" x2="10" y2="68.81" stroke="#5EE7FF" stroke-width="1"/><line x1="11" y1="49.33" x2="11" y2="70.67" stroke="#5EE7FF" stroke-width="1"/><line x1="12" y1="53.37" x2="12" y2="66.63" stroke="#5EE7FF" stroke-width="1"/><line x1="13" y1="54.02" x2="13" y2="65.98" stroke="#5EE7FF" stroke-width="1"/><line x1="14" y1="46.05" x2="14" y2="73.95" stroke="#5EE7FF" stroke-width="1"/><line x1="15" y1="46.24" x2="15" y2="73.76" stroke="#5EE7FF" stroke-width="1"/><line x1="16" y1="53.47" x2="16" y2="66.53" stroke="#5EE7FF" stroke-width="1"/><line x1="17" y1="49.81" x2="17" y2="70.19" stroke="#5EE7FF" stroke-width="1"/><line x1="18" y1="42.94" x2="18" y2="77.06" stroke="#5EE7FF" stroke-width="1"/><line x1="19" y1="45.32" x2="19" y2="74.68" stroke="#5EE7FF" stroke-width="1"/><line x1="20" y1="54.72" x2="20" y2="65.28" stroke="#5EE7FF" stroke-width="1"/><line x1="21" y1="44.70" x2="21" y2="75.30" stroke="#5EE7FF" stroke-width="1"/><line x1="22" y1="39.86" x2="22" y2="80.14" stroke="#5EE7FF" stroke-width="1"/><line x1="23" y1="45.47" x2="23" y2="74.53" stroke="#5EE7FF" stroke-width="1"/><line x1="24" y1="51.69" x2="24" y2="68.31" stroke="#5EE7FF" stroke-width="1"/><line x1="25" y1="39.00" x2="25" y2="81.00" stroke="#5EE7FF" stroke-width="1"/><line x1="26" y1="36.89" x2="26" y2="83.11" stroke="#5EE7FF" stroke-width="1"/><line x1="27" y1="46.68" x2="27" y2="73.32" stroke="#5EE7FF" stroke-width="1"/><line x1="28" y1="47.07" x2="28" y2="72.93" stroke="#5EE7FF" stroke-width="1"/><line x1="29" y1="35.81" x2="29" y2="84.19" stroke="#5EE7FF" stroke-width="1"/><line x1="30" y1="37.41" x2="30" y2="82.59" stroke="#5EE7FF" stroke-width="1"/><line x1="31" y1="50.24" x2="31" y2="69.76" stroke="#5EE7FF" stroke-width="1"/><line x1="32" y1="43.45" x2="32" y2="76.55" stroke="#5EE7FF" stroke-width="1"/><line x1="33" y1="35.68" x2="33" y2="84.32" stroke="#5EE7FF" stroke-width="1"/><line x1="34" y1="40.64" x2="34" y2="79.36" stroke="#5EE7FF" stroke-width="1"/><line x1="35" y1="53.41" x2="35" y2="66.59" stroke="#5EE7FF" stroke-width="1"/><line x1="36" y1="40.03" x2="36" y2="79.97" stroke="#5EE7FF" stroke-width="1"/><line x1="37" y1="35.54" x2="37" y2="84.46" stroke="#5EE7FF" stroke-width="1"/><line x1="38" y1="44.09" x2="38" y2="75.91" stroke="#5EE7FF" stroke-width="1"/><line x1="39" y1="49.54" x2="39" y2="70.46" stroke="#5EE7FF" stroke-width="1"/><line x1="40" y1="36.85" x2="40" y2="83.15" stroke="#5EE7FF" stroke-width="1"/><line x1="41" y1="35.41" x2="41" y2="84.59" stroke="#5EE7FF" stroke-width="1"/><line x1="42" y1="47.75" x2="42" y2="72.25" stroke="#5EE7FF" stroke-width="1"/><line x1="43" y1="45.82" x2="43" y2="74.18" stroke="#5EE7FF" stroke-width="1"/><line x1="44" y1="35.41" x2="44" y2="84.59" stroke="#5EE7FF" stroke-width="1"/><line x1="45" y1="38.48" x2="45" y2="81.52" stroke="#5EE7FF" stroke-width="1"/><line x1="46" y1="51.55" x2="46" y2="68.45" stroke="#5EE7FF" stroke-width="1"/><line x1="47" y1="42.26" x2="47" y2="77.74" stroke="#5EE7FF" stroke-width="1"/><line x1="48" y1="35.54" x2="48" y2="84.46" stroke="#5EE7FF" stroke-width="1"/><line x1="49" y1="41.79" x2="49" y2="78.21" stroke="#5EE7FF" stroke-width="1"/><line x1="50" y1="52.08" x2="50" y2="67.92" stroke="#5EE7FF" stroke-width="1"/><line x1="51" y1="38.92" x2="51" y2="81.08" stroke="#5EE7FF" stroke-width="1"/><line x1="52" y1="35.68" x2="52" y2="84.32" stroke="#5EE7FF" stroke-width="1"/><line x1="53" y1="45.32" x2="53" y2="74.68" stroke="#5EE7FF" stroke-width="1"/><line x1="54" y1="48.26" x2="54" y2="71.74" stroke="#5EE7FF" stroke-width="1"/><line x1="55" y1="35.81" x2="55" y2="84.19" stroke="#5EE7FF" stroke-width="1"/><line x1="56" y1="36.43" x2="56" y2="83.57" stroke="#5EE7FF" stroke-width="1"/><line x1="57" y1="49.03" x2="57" y2="70.97" stroke="#5EE7FF" stroke-width="1"/><line x1="58" y1="44.58" x2="58" y2="75.42" stroke="#5EE7FF" stroke-width="1"/><line x1="59" y1="35.95" x2="59" y2="84.05" stroke="#5EE7FF" stroke-width="1"/><line x1="60" y1="39.59" x2="60" y2="80.41" stroke="#5EE7FF" stroke-width="1"/><line x1="61" y1="52.88" x2="61" y2="67.12" stroke="#5EE7FF" stroke-width="1"/><line x1="62" y1="41.10" x2="62" y2="78.90" stroke="#5EE7FF" stroke-width="1"/><line x1="63" y1="36.09" x2="63" y2="83.91" stroke="#5EE7FF" stroke-width="1"/><line x1="64" y1="42.97" x2="64" y2="77.03" stroke="#5EE7FF" stroke-width="1"/><line x1="65" y1="50.76" x2="65" y2="69.24" stroke="#5EE7FF" stroke-width="1"/><line x1="66" y1="37.83" x2="66" y2="82.17" stroke="#5EE7FF" stroke-width="1"/><line x1="67" y1="36.02" x2="67" y2="83.98" stroke="#5EE7FF" stroke-width="1"/><line x1="68" y1="46.56" x2="68" y2="73.44" stroke="#5EE7FF" stroke-width="1"/><line x1="69" y1="46.98" x2="69" y2="73.02" stroke="#5EE7FF" stroke-width="1"/><line x1="70" y1="35.88" x2="70" y2="84.12" stroke="#5EE7FF" stroke-width="1"/><line x1="71" y1="37.48" x2="71" y2="82.52" stroke="#5EE7FF" stroke-width="1"/><line x1="72" y1="50.33" x2="72" y2="69.67" stroke="#5EE7FF" stroke-width="1"/><line x1="73" y1="43.37" x2="73" y2="76.63" stroke="#5EE7FF" stroke-width="1"/><line x1="74" y1="35.75" x2="74" y2="84.25" stroke="#5EE7FF" stroke-width="1"/><line x1="75" y1="40.72" x2="75" y2="79.28" stroke="#5EE7FF" stroke-width="1"/><line x1="76" y1="53.32" x2="76" y2="66.68" stroke="#5EE7FF" stroke-width="1"/><line x1="77" y1="39.96" x2="77" y2="80.04" stroke="#5EE7FF" stroke-width="1"/><line x1="78" y1="35.61" x2="78" y2="84.39" stroke="#5EE7FF" stroke-width="1"/><line x1="79" y1="44.18" x2="79" y2="75.82" stroke="#5EE7FF" stroke-width="1"/><line x1="80" y1="49.46" x2="80" y2="70.54" stroke="#5EE7FF" stroke-width="1"/><line x1="81" y1="36.78" x2="81" y2="83.22" stroke="#5EE7FF" stroke-width="1"/><line x1="82" y1="35.48" x2="82" y2="84.52" stroke="#5EE7FF" stroke-width="1"/><line x1="83" y1="47.83" x2="83" y2="72.17" stroke="#5EE7FF" stroke-width="1"/><line x1="84" y1="45.73" x2="84" y2="74.27" stroke="#5EE7FF" stroke-width="1"/><line x1="85" y1="35.34" x2="85" y2="84.66" stroke="#5EE7FF" stroke-width="1"/><line x1="86" y1="38.56" x2="86" y2="81.44" stroke="#5EE7FF" stroke-width="1"/><line x1="87" y1="51.64" x2="87" y2="68.36" stroke="#5EE7FF" stroke-width="1"/><line x1="88" y1="42.18" x2="88" y2="77.82" stroke="#5EE7FF" stroke-width="1"/><line x1="89" y1="35.48" x2="89" y2="84.52" stroke="#5EE7FF" stroke-width="1"/><line x1="90" y1="41.87" x2="90" y2="78.13" stroke="#5EE7FF" stroke-width="1"/><line x1="91" y1="51.99" x2="91" y2="68.01" stroke="#5EE7FF" stroke-width="1"/><line x1="92" y1="38.85" x2="92" y2="81.15" stroke="#5EE7FF" stroke-width="1"/><line x1="93" y1="35.61" x2="93" y2="84.39" stroke="#5EE7FF" stroke-width="1"/><line x1="94" y1="45.40" x2="94" y2="74.60" stroke="#5EE7FF" stroke-width="1"/><line x1="95" y1="48.17" x2="95" y2="71.83" stroke="#5EE7FF" stroke-width="1"/><line x1="96" y1="35.75" x2="96" y2="84.25" stroke="#5EE7FF" stroke-width="1"/><line x1="97" y1="36.50" x2="97" y2="83.50" stroke="#5EE7FF" stroke-width="1"/><line x1="98" y1="49.11" x2="98" y2="70.89" stroke="#5EE7FF" stroke-width="1"/><line x1="99" y1="44.50" x2="99" y2="75.50" stroke="#5EE7FF" stroke-width="1"/><line x1="100" y1="35.88" x2="100" y2="84.12" stroke="#5EE7FF" stroke-width="1"/><line x1="101" y1="39.66" x2="101" y2="80.34" stroke="#5EE7FF" stroke-width="1"/><line x1="102" y1="52.97" x2="102" y2="67.03" stroke="#5EE7FF" stroke-width="1"/><line x1="103" y1="41.02" x2="103" y2="78.98" stroke="#5EE7FF" stroke-width="1"/><line x1="104" y1="36.02" x2="104" y2="83.98" stroke="#5EE7FF" stroke-width="1"/><line x1="105" y1="43.05" x2="105" y2="76.95" stroke="#5EE7FF" stroke-width="1"/><line x1="106" y1="50.68" x2="106" y2="69.32" stroke="#5EE7FF" stroke-width="1"/><line x1="107" y1="37.76" x2="107" y2="82.24" stroke="#5EE7FF" stroke-width="1"/><line x1="108" y1="36.09" x2="108" y2="83.91" stroke="#5EE7FF" stroke-width="1"/><line x1="109" y1="46.65" x2="109" y2="73.35" stroke="#5EE7FF" stroke-width="1"/><line x1="110" y1="46.90" x2="110" y2="73.10" stroke="#5EE7FF" stroke-width="1"/><line x1="111" y1="35.95" x2="111" y2="84.05" stroke="#5EE7FF" stroke-width="1"/><line x1="112" y1="37.55" x2="112" y2="82.45" stroke="#5EE7FF" stroke-width="1"/><line x1="113" y1="50.41" x2="113" y2="69.59" stroke="#5EE7FF" stroke-width="1"/><line x1="114" y1="43.29" x2="114" y2="76.71" stroke="#5EE7FF" stroke-width="1"/><line x1="115" y1="35.81" x2="115" y2="84.19" stroke="#5EE7FF" stroke-width="1"/><line x1="116" y1="40.79" x2="116" y2="79.21" stroke="#5EE7FF" stroke-width="1"/><line x1="117" y1="53.23" x2="117" y2="66.77" stroke="#5EE7FF" stroke-width="1"/><line x1="118" y1="39.88" x2="118" y2="80.12" stroke="#5EE7FF" stroke-width="1"/><line x1="119" y1="35.68" x2="119" y2="84.32" stroke="#5EE7FF" stroke-width="1"/><line x1="120" y1="44.26" x2="120" y2="75.74" stroke="#5EE7FF" stroke-width="1"/><line x1="121" y1="49.37" x2="121" y2="70.63" stroke="#5EE7FF" stroke-width="1"/><line x1="122" y1="36.71" x2="122" y2="83.29" stroke="#5EE7FF" stroke-width="1"/><line x1="123" y1="35.54" x2="123" y2="84.46" stroke="#5EE7FF" stroke-width="1"/><line x1="124" y1="47.97" x2="124" y2="72.03" stroke="#5EE7FF" stroke-width="1"/><line x1="125" y1="45.88" x2="125" y2="74.12" stroke="#5EE7FF" stroke-width="1"/><line x1="126" y1="35.87" x2="126" y2="84.13" stroke="#5EE7FF" stroke-width="1"/><line x1="127" y1="39.08" x2="127" y2="80.92" stroke="#5EE7FF" stroke-width="1"/><line x1="128" y1="51.98" x2="128" y2="68.02" stroke="#5EE7FF" stroke-width="1"/><line x1="129" y1="42.82" x2="129" y2="77.18" stroke="#5EE7FF" stroke-width="1"/><line x1="130" y1="36.37" x2="130" y2="83.63" stroke="#5EE7FF" stroke-width="1"/><line x1="131" y1="42.79" x2="131" y2="77.21" stroke="#5EE7FF" stroke-width="1"/><line x1="132" y1="52.41" x2="132" y2="67.59" stroke="#5EE7FF" stroke-width="1"/><line x1="133" y1="40.08" x2="133" y2="79.92" stroke="#5EE7FF" stroke-width="1"/><line x1="134" y1="37.01" x2="134" y2="82.99" stroke="#5EE7FF" stroke-width="1"/><line x1="135" y1="46.55" x2="135" y2="73.45" stroke="#5EE7FF" stroke-width="1"/><line x1="136" y1="49.12" x2="136" y2="70.88" stroke="#5EE7FF" stroke-width="1"/><line x1="137" y1="37.66" x2="137" y2="82.34" stroke="#5EE7FF" stroke-width="1"/><line x1="138" y1="38.52" x2="138" y2="81.48" stroke="#5EE7FF" stroke-width="1"/><line x1="139" y1="50.29" x2="139" y2="69.71" stroke="#5EE7FF" stroke-width="1"/><line x1="140" y1="46.13" x2="140" y2="73.87" stroke="#5EE7FF" stroke-width="1"/><line x1="141" y1="38.30" x2="141" y2="81.70" stroke="#5EE7FF" stroke-width="1"/><line x1="142" y1="41.99" x2="142" y2="78.01" stroke="#5EE7FF" stroke-width="1"/><line x1="143" y1="53.95" x2="143" y2="66.05" stroke="#5EE7FF" stroke-width="1"/><line x1="144" y1="43.43" x2="144" y2="76.57" stroke="#5EE7FF" stroke-width="1"/><line x1="145" y1="38.95" x2="145" y2="81.05" stroke="#5EE7FF" stroke-width="1"/><line x1="146" y1="45.50" x2="146" y2="74.50" stroke="#5EE7FF" stroke-width="1"/><line x1="147" y1="52.09" x2="147" y2="67.91" stroke="#5EE7FF" stroke-width="1"/><line x1="148" y1="41.03" x2="148" y2="78.97" stroke="#5EE7FF" stroke-width="1"/><line x1="149" y1="39.61" x2="149" y2="80.39" stroke="#5EE7FF" stroke-width="1"/><line x1="150" y1="48.99" x2="150" y2="71.01" stroke="#5EE7FF" stroke-width="1"/><line x1="151" y1="49.22" x2="151" y2="70.78" stroke="#5EE7FF" stroke-width="1"/><line x1="152" y1="40.10" x2="152" y2="79.90" stroke="#5EE7FF" stroke-width="1"/><line x1="153" y1="41.53" x2="153" y2="78.47" stroke="#5EE7FF" stroke-width="1"/><line x1="154" y1="52.40" x2="154" y2="67.60" stroke="#5EE7FF" stroke-width="1"/><line x1="155" y1="46.62" x2="155" y2="73.38" stroke="#5EE7FF" stroke-width="1"/><line x1="156" y1="40.52" x2="156" y2="79.48" stroke="#5EE7FF" stroke-width="1"/><line x1="157" y1="44.81" x2="157" y2="75.19" stroke="#5EE7FF" stroke-width="1"/><line x1="158" y1="54.75" x2="158" y2="65.25" stroke="#5EE7FF" stroke-width="1"/><line x1="159" y1="44.29" x2="159" y2="75.71" stroke="#5EE7FF" stroke-width="1"/><line x1="160" y1="40.95" x2="160" y2="79.05" stroke="#5EE7FF" stroke-width="1"/><line x1="161" y1="48.06" x2="161" y2="71.94" stroke="#5EE7FF" stroke-width="1"/><line x1="162" y1="52.04" x2="162" y2="67.96" stroke="#5EE7FF" stroke-width="1"/><line x1="163" y1="42.23" x2="163" y2="77.77" stroke="#5EE7FF" stroke-width="1"/><line x1="164" y1="41.40" x2="164" y2="78.60" stroke="#5EE7FF" stroke-width="1"/><line x1="165" y1="51.23" x2="165" y2="68.77" stroke="#5EE7FF" stroke-width="1"/><line x1="166" y1="49.58" x2="166" y2="70.42" stroke="#5EE7FF" stroke-width="1"/><line x1="167" y1="41.85" x2="167" y2="78.15" stroke="#5EE7FF" stroke-width="1"/><line x1="168" y1="44.48" x2="168" y2="75.52" stroke="#5EE7FF" stroke-width="1"/><line x1="169" y1="54.27" x2="169" y2="65.73" stroke="#5EE7FF" stroke-width="1"/><line x1="170" y1="47.37" x2="170" y2="72.63" stroke="#5EE7FF" stroke-width="1"/><line x1="171" y1="42.32" x2="171" y2="77.68" stroke="#5EE7FF" stroke-width="1"/><line x1="172" y1="47.50" x2="172" y2="72.50" stroke="#5EE7FF" stroke-width="1"/><line x1="173" y1="54.53" x2="173" y2="65.47" stroke="#5EE7FF" stroke-width="1"/><line x1="174" y1="45.41" x2="174" y2="74.59" stroke="#5EE7FF" stroke-width="1"/><line x1="175" y1="43.01" x2="175" y2="76.99" stroke="#5EE7FF" stroke-width="1"/><line x1="176" y1="50.44" x2="176" y2="69.56" stroke="#5EE7FF" stroke-width="1"/><line x1="177" y1="52.24" x2="177" y2="67.76" stroke="#5EE7FF" stroke-width="1"/><line x1="178" y1="43.70" x2="178" y2="76.30" stroke="#5EE7FF" stroke-width="1"/><line x1="179" y1="44.48" x2="179" y2="75.52" stroke="#5EE7FF" stroke-width="1"/><line x1="180" y1="53.25" x2="180" y2="66.75" stroke="#5EE7FF" stroke-width="1"/><line x1="181" y1="50.20" x2="181" y2="69.80" stroke="#5EE7FF" stroke-width="1"/><line x1="182" y1="44.38" x2="182" y2="75.62" stroke="#5EE7FF" stroke-width="1"/><line x1="183" y1="47.31" x2="183" y2="72.69" stroke="#5EE7FF" stroke-width="1"/><line x1="184" y1="55.89" x2="184" y2="64.11" stroke="#5EE7FF" stroke-width="1"/><line x1="185" y1="48.38" x2="185" y2="71.62" stroke="#5EE7FF" stroke-width="1"/><line x1="186" y1="45.07" x2="186" y2="74.93" stroke="#5EE7FF" stroke-width="1"/><line x1="187" y1="50.02" x2="187" y2="69.98" stroke="#5EE7FF" stroke-width="1"/><line x1="188" y1="54.58" x2="188" y2="65.42" stroke="#5EE7FF" stroke-width="1"/><line x1="189" y1="46.80" x2="189" y2="73.20" stroke="#5EE7FF" stroke-width="1"/><line x1="190" y1="45.75" x2="190" y2="74.25" stroke="#5EE7FF" stroke-width="1"/><line x1="191" y1="52.60" x2="191" y2="67.40" stroke="#5EE7FF" stroke-width="1"/><line x1="192" y1="52.72" x2="192" y2="67.28" stroke="#5EE7FF" stroke-width="1"/><line x1="193" y1="46.41" x2="193" y2="73.59" stroke="#5EE7FF" stroke-width="1"/><line x1="194" y1="47.46" x2="194" y2="72.54" stroke="#5EE7FF" stroke-width="1"/><line x1="195" y1="55.02" x2="195" y2="64.98" stroke="#5EE7FF" stroke-width="1"/><line x1="196" y1="51.08" x2="196" y2="68.92" stroke="#5EE7FF" stroke-width="1"/><line x1="197" y1="46.92" x2="197" y2="73.08" stroke="#5EE7FF" stroke-width="1"/><line x1="198" y1="49.97" x2="198" y2="70.03" stroke="#5EE7FF" stroke-width="1"/><line x1="199" y1="56.56" x2="199" y2="63.44" stroke="#5EE7FF" stroke-width="1"/><line x1="200" y1="49.66" x2="200" y2="70.34" stroke="#5EE7FF" stroke-width="1"/><line x1="201" y1="47.45" x2="201" y2="72.55" stroke="#5EE7FF" stroke-width="1"/><line x1="202" y1="52.34" x2="202" y2="67.66" stroke="#5EE7FF" stroke-width="1"/><line x1="203" y1="54.90" x2="203" y2="65.10" stroke="#5EE7FF" stroke-width="1"/><line x1="204" y1="48.47" x2="204" y2="71.53" stroke="#5EE7FF" stroke-width="1"/><line x1="205" y1="47.98" x2="205" y2="72.02" stroke="#5EE7FF" stroke-width="1"/><line x1="206" y1="54.53" x2="206" y2="65.47" stroke="#5EE7FF" stroke-width="1"/><line x1="207" y1="53.46" x2="207" y2="66.54" stroke="#5EE7FF" stroke-width="1"/><line x1="208" y1="48.53" x2="208" y2="71.47" stroke="#5EE7FF" stroke-width="1"/><line x1="209" y1="50.29" x2="209" y2="69.71" stroke="#5EE7FF" stroke-width="1"/><line x1="210" y1="56.53" x2="210" y2="63.47" stroke="#5EE7FF" stroke-width="1"/><line x1="211" y1="52.23" x2="211" y2="67.77" stroke="#5EE7FF" stroke-width="1"/><line x1="212" y1="49.09" x2="212" y2="70.91" stroke="#5EE7FF" stroke-width="1"/><line x1="213" y1="52.44" x2="213" y2="67.56" stroke="#5EE7FF" stroke-width="1"/><line x1="214" y1="56.72" x2="214" y2="63.28" stroke="#5EE7FF" stroke-width="1"/><line x1="215" y1="51.22" x2="215" y2="68.78" stroke="#5EE7FF" stroke-width="1"/><line x1="216" y1="49.72" x2="216" y2="70.28" stroke="#5EE7FF" stroke-width="1"/><line x1="217" y1="54.42" x2="217" y2="65.58" stroke="#5EE7FF" stroke-width="1"/><line x1="218" y1="55.49" x2="218" y2="64.51" stroke="#5EE7FF" stroke-width="1"/><line x1="219" y1="50.42" x2="219" y2="69.58" stroke="#5EE7FF" stroke-width="1"/><line x1="220" y1="50.98" x2="220" y2="69.02" stroke="#5EE7FF" stroke-width="1"/><line x1="221" y1="56.20" x2="221" y2="63.80" stroke="#5EE7FF" stroke-width="1"/><line x1="222" y1="54.47" x2="222" y2="65.53" stroke="#5EE7FF" stroke-width="1"/><line x1="223" y1="51.12" x2="223" y2="68.88" stroke="#5EE7FF" stroke-width="1"/><line x1="224" y1="52.93" x2="224" y2="67.07" stroke="#5EE7FF" stroke-width="1"/><line x1="225" y1="57.78" x2="225" y2="62.22" stroke="#5EE7FF" stroke-width="1"/><line x1="226" y1="53.66" x2="226" y2="66.34" stroke="#5EE7FF" stroke-width="1"/><line x1="227" y1="51.82" x2="227" y2="68.18" stroke="#5EE7FF" stroke-width="1"/><line x1="228" y1="54.69" x2="228" y2="65.31" stroke="#5EE7FF" stroke-width="1"/><line x1="229" y1="57.15" x2="229" y2="62.85" stroke="#5EE7FF" stroke-width="1"/><line x1="230" y1="53.07" x2="230" y2="66.93" stroke="#5EE7FF" stroke-width="1"/><line x1="231" y1="52.50" x2="231" y2="67.50" stroke="#5EE7FF" stroke-width="1"/><line x1="232" y1="56.25" x2="232" y2="63.75" stroke="#5EE7FF" stroke-width="1"/><line x1="233" y1="56.35" x2="233" y2="63.65" stroke="#5EE7FF" stroke-width="1"/><line x1="234" y1="53.19" x2="234" y2="66.81" stroke="#5EE7FF" stroke-width="1"/><line x1="235" y1="53.79" x2="235" y2="66.21" stroke="#5EE7FF" stroke-width="1"/><line x1="236" y1="57.61" x2="236" y2="62.39" stroke="#5EE7FF" stroke-width="1"/><line x1="237" y1="55.75" x2="237" y2="64.25" stroke="#5EE7FF" stroke-width="1"/><line x1="238" y1="53.82" x2="238" y2="66.18" stroke="#5EE7FF" stroke-width="1"/><line x1="239" y1="55.34" x2="239" y2="64.66" stroke="#5EE7FF" stroke-width="1"/><line x1="240" y1="58.44" x2="240" y2="61.56" stroke="#5EE7FF" stroke-width="1"/><line x1="241" y1="55.37" x2="241" y2="64.63" stroke="#5EE7FF" stroke-width="1"/><line x1="242" y1="54.43" x2="242" y2="65.57" stroke="#5EE7FF" stroke-width="1"/><line x1="243" y1="56.69" x2="243" y2="63.31" stroke="#5EE7FF" stroke-width="1"/><line x1="244" y1="57.85" x2="244" y2="62.15" stroke="#5EE7FF" stroke-width="1"/><line x1="245" y1="55.20" x2="245" y2="64.80" stroke="#5EE7FF" stroke-width="1"/><line x1="246" y1="55.04" x2="246" y2="64.96" stroke="#5EE7FF" stroke-width="1"/><line x1="247" y1="57.83" x2="247" y2="62.17" stroke="#5EE7FF" stroke-width="1"/><line x1="248" y1="57.48" x2="248" y2="62.52" stroke="#5EE7FF" stroke-width="1"/><line x1="249" y1="55.66" x2="249" y2="64.34" stroke="#5EE7FF" stroke-width="1"/><line x1="250" y1="56.37" x2="250" y2="63.63" stroke="#5EE7FF" stroke-width="1"/><line x1="251" y1="58.76" x2="251" y2="61.24" stroke="#5EE7FF" stroke-width="1"/><line x1="252" y1="57.31" x2="252" y2="62.69" stroke="#5EE7FF" stroke-width="1"/><line x1="253" y1="56.29" x2="253" y2="63.71" stroke="#5EE7FF" stroke-width="1"/><line x1="254" y1="57.50" x2="254" y2="62.50" stroke="#5EE7FF" stroke-width="1"/><line x1="255" y1="58.98" x2="255" y2="61.02" stroke="#5EE7FF" stroke-width="1"/><line x1="256" y1="57.36" x2="256" y2="62.64" stroke="#5EE7FF" stroke-width="1"/><line x1="257" y1="56.93" x2="257" y2="63.07" stroke="#5EE7FF" stroke-width="1"/><line x1="258" y1="58.43" x2="258" y2="61.57" stroke="#5EE7FF" stroke-width="1"/><line x1="259" y1="58.82" x2="259" y2="61.18" stroke="#5EE7FF" stroke-width="1"/><line x1="260" y1="57.62" x2="260" y2="62.38" stroke="#5EE7FF" stroke-width="1"/><line x1="261" y1="57.79" x2="261" y2="62.21" stroke="#5EE7FF" stroke-width="1"/><line x1="262" y1="59.14" x2="262" y2="60.86" stroke="#5EE7FF" stroke-width="1"/><line x1="263" y1="58.88" x2="263" y2="61.12" stroke="#5EE7FF" stroke-width="1"/><line x1="264" y1="58.30" x2="264" y2="61.70" stroke="#5EE7FF" stroke-width="1"/><line x1="265" y1="58.71" x2="265" y2="61.29" stroke="#5EE7FF" stroke-width="1"/><line x1="266" y1="59.64" x2="266" y2="60.36" stroke="#5EE7FF" stroke-width="1"/><line x1="267" y1="59.15" x2="267" y2="60.85" stroke="#5EE7FF" stroke-width="1"/><line x1="268" y1="58.96" x2="268" y2="61.04" stroke="#5EE7FF" stroke-width="1"/><line x1="269" y1="59.41" x2="269" y2="60.59" stroke="#5EE7FF" stroke-width="1"/><line x1="270" y1="59.79" x2="270" y2="60.21" stroke="#5EE7FF" stroke-width="1"/><line x1="271" y1="59.63" x2="271" y2="60.37" stroke="#5EE7FF" stroke-width="1"/><line x1="272" y1="59.62" x2="272" y2="60.38" stroke="#5EE7FF" stroke-width="1"/><line x1="273" y1="59.90" x2="273" y2="60.10" stroke="#5EE7FF" stroke-width="1"/><line x1="274" y1="60.00" x2="274" y2="60.00" stroke="#5EE7FF" stroke-width="1"/><line x1="275" y1="60.00" x2="275" y2="60.00" stroke="#5EE7FF" stroke-width="1"/><line x1="276" y1="60.00" x2="276" y2="60.00" stroke="#5EE7FF" stroke-width="1"/><line x1="277" y1="60.00" x2="277" y2="60.00" stroke="#5EE7FF" stroke-width="1"/><line x1="278" y1="60.00" x2="278" y2="60.00" stroke="#5EE7FF" stroke-width="1"/><line x1="279" y1="60.00" x2="279" y2="60.00" stroke="#5EE7FF" stroke-width="1"/><line x1="280" y1="60.00" x2="280" y2="60.00" stroke="#5EE7FF" stroke-width="1"/><line x1="281" y1="60.00" x2="281" y2="60.00" stroke="#5EE7FF" stroke-width="1"/><line x1="282" y1="60.00" x2="282" y2="60.00" stroke="#5EE7FF" stroke-width="1"/><line x1="283" y1="60.00" x2="283" y2="60.00" stroke="#5EE7FF" stroke-width="1"/><line x1="284" y1="60.00" x2="284" y2="60.00" stroke="#5EE7FF" stroke-width="1"/><line x1="285" y1="60.00" x2="285" y2="60.00" stroke="#5EE7FF" stroke-width="1"/><line x1="286" y1="60.00" x2="286" y2="60.00" stroke="#5EE7FF" stroke-width="1"/><line x1="287" y1="60.00" x2="287" y2="60.00" stroke="#5EE7FF" stroke-width="1"/><line x1="288" y1="60.00" x2="288" y2="60.00" stroke="#5EE7FF" stroke-width="1"/><line x1="289" y1="60.00" x2="289" y2="60.00" stroke="#5EE7FF" stroke-width="1"/><line x1="290" y1="60.00" x2="290" y2="60.00" stroke="#5EE7FF" stroke-width="1"/><line x1="291" y1="60.00" x2="291" y2="60.00" stroke="#5EE7FF" stroke-width="1"/><line x1="292" y1="60.00" x2="292" y2="60.00" stroke="#5EE7FF" stroke-width="1"/><line x1="293" y1="60.00" x2="293" y2="60.00" stroke="#5EE7FF" stroke-width="1"/><line x1="294" y1="60.00" x2="294" y2="60.00" stroke="#5EE7FF" stroke-width="1"/><line x1="295" y1="60.00" x2="295" y2="60.00" stroke="#5EE7FF" stroke-width="1"/><line x1="296" y1="60.00" x2="296" y2="60.00" stroke="#5EE7FF" stroke-width="1"/><line x1="297" y1="60.00" x2="297" y2="60.00" stroke="#5EE7FF" stroke-width="1"/><line x1="298" y1="60.00" x2="298" y2="60.00" stroke="#5EE7FF" stroke-width="1"/><line x1="299" y1="60.00" x2="299" y2="60.00" stroke="#5EE7FF" stroke-width="1"/><line x1="300" y1="60.00" x2="300" y2="60.00" stroke="#5EE7FF" stroke-width="1"/><line x1="301" y1="60.00" x2="301" y2="60.00" stroke="#5EE7FF" stroke-width="1"/><line x1="302" y1="60.00" x2="302" y2="60.00" stroke="#5EE7FF" stroke-width="1"/><line x1="303" y1="60.00" x2="303" y2="60.00" stroke="#5EE7FF" stroke-width="1"/><line x1="304" y1="60.00" x2="304" y2="60.00" stroke="#5EE7FF" stroke-width="1"/><line x1="305" y1="60.00" x2="305" y2="60.00" stroke="#5EE7FF" stroke-width="1"/><line x1="306" y1="60.00" x2="306" y2="60.00" stroke="#5EE7FF" stroke-width="1"/><line x1="307" y1="60.00" x2="307" y2="60.00" stroke="#5EE7FF" stroke-width="1"/><line x1="308" y1="59.95" x2="308" y2="60.05" stroke="#5EE7FF" stroke-width="1"/><line x1="309" y1="59.13" x2="309" y2="60.87" stroke="#5EE7FF" stroke-width="1"/><line x1="310" y1="57.86" x2="310" y2="62.14" stroke="#5EE7FF" stroke-width="1"/><line x1="311" y1="57.24" x2="311" y2="62.76" stroke="#5EE7FF" stroke-width="1"/><line x1="312" y1="57.26" x2="312" y2="62.74" stroke="#5EE7FF" stroke-width="1"/><line x1="313" y1="58.44" x2="313" y2="61.56" stroke="#5EE7FF" stroke-width="1"/><line x1="314" y1="55.85" x2="314" y2="64.15" stroke="#5EE7FF" stroke-width="1"/><line x1="315" y1="53.26" x2="315" y2="66.74" stroke="#5EE7FF" stroke-width="1"/><line x1="316" y1="52.75" x2="316" y2="67.25" stroke="#5EE7FF" stroke-width="1"/><line x1="317" y1="53.20" x2="317" y2="66.80" stroke="#5EE7FF" stroke-width="1"/><line x1="318" y1="56.46" x2="318" y2="63.54" stroke="#5EE7FF" stroke-width="1"/><line x1="319" y1="52.79" x2="319" y2="67.21" stroke="#5EE7FF" stroke-width="1"/><line x1="320" y1="48.82" x2="320" y2="71.18" stroke="#5EE7FF" stroke-width="1"/><line x1="321" y1="48.23" x2="321" y2="71.77" stroke="#5EE7FF" stroke-width="1"/><line x1="322" y1="49.12" x2="322" y2="70.88" stroke="#5EE7FF" stroke-width="1"/><line x1="323" y1="54.28" x2="323" y2="65.72" stroke="#5EE7FF" stroke-width="1"/><line x1="324" y1="49.96" x2="324" y2="70.04" stroke="#5EE7FF" stroke-width="1"/><line x1="325" y1="44.62" x2="325" y2="75.38" stroke="#5EE7FF" stroke-width="1"/><line x1="326" y1="43.90" x2="326" y2="76.10" stroke="#5EE7FF" stroke-width="1"/><line x1="327" y1="45.10" x2="327" y2="74.90" stroke="#5EE7FF" stroke-width="1"/><line x1="328" y1="51.91" x2="328" y2="68.09" stroke="#5EE7FF" stroke-width="1"/><line x1="329" y1="47.39" x2="329" y2="72.61" stroke="#5EE7FF" stroke-width="1"/><line x1="330" y1="40.73" x2="330" y2="79.27" stroke="#5EE7FF" stroke-width="1"/><line x1="331" y1="39.83" x2="331" y2="80.17" stroke="#5EE7FF" stroke-width="1"/><line x1="332" y1="41.21" x2="332" y2="78.79" stroke="#5EE7FF" stroke-width="1"/><line x1="333" y1="49.37" x2="333" y2="70.63" stroke="#5EE7FF" stroke-width="1"/><line x1="334" y1="45.07" x2="334" y2="74.93" stroke="#5EE7FF" stroke-width="1"/><line x1="335" y1="37.17" x2="335" y2="82.83" stroke="#5EE7FF" stroke-width="1"/><line x1="336" y1="36.31" x2="336" y2="83.69" stroke="#5EE7FF" stroke-width="1"/><line x1="337" y1="38.18" x2="337" y2="81.82" stroke="#5EE7FF" stroke-width="1"/><line x1="338" y1="47.55" x2="338" y2="72.45" stroke="#5EE7FF" stroke-width="1"/><line x1="339" y1="44.94" x2="339" y2="75.06" stroke="#5EE7FF" stroke-width="1"/><line x1="340" y1="37.22" x2="340" y2="82.78" stroke="#5EE7FF" stroke-width="1"/><line x1="341" y1="36.33" x2="341" y2="83.67" stroke="#5EE7FF" stroke-width="1"/><line x1="342" y1="37.96" x2="342" y2="82.04" stroke="#5EE7FF" stroke-width="1"/><line x1="343" y1="47.01" x2="343" y2="72.99" stroke="#5EE7FF" stroke-width="1"/><line x1="344" y1="45.44" x2="344" y2="74.56" stroke="#5EE7FF" stroke-width="1"/><line x1="345" y1="37.39" x2="345" y2="82.61" stroke="#5EE7FF" stroke-width="1"/><line x1="346" y1="36.32" x2="346" y2="83.68" stroke="#5EE7FF" stroke-width="1"/><line x1="347" y1="37.76" x2="347" y2="82.24" stroke="#5EE7FF" stroke-width="1"/><line x1="348" y1="46.47" x2="348" y2="73.53" stroke="#5EE7FF" stroke-width="1"/><line x1="349" y1="45.95" x2="349" y2="74.05" stroke="#5EE7FF" stroke-width="1"/><line x1="350" y1="37.56" x2="350" y2="82.44" stroke="#5EE7FF" stroke-width="1"/><line x1="351" y1="36.31" x2="351" y2="83.69" stroke="#5EE7FF" stroke-width="1"/><line x1="352" y1="37.56" x2="352" y2="82.44" stroke="#5EE7FF" stroke-width="1"/><line x1="353" y1="45.95" x2="353" y2="74.05" stroke="#5EE7FF" stroke-width="1"/><line x1="354" y1="46.47" x2="354" y2="73.53" stroke="#5EE7FF" stroke-width="1"/><line x1="355" y1="37.76" x2="355" y2="82.24" stroke="#5EE7FF" stroke-width="1"/><line x1="356" y1="36.32" x2="356" y2="83.68" stroke="#5EE7FF" stroke-width="1"/><line x1="357" y1="37.39" x2="357" y2="82.61" stroke="#5EE7FF" stroke-width="1"/><line x1="358" y1="45.44" x2="358" y2="74.56" stroke="#5EE7FF" stroke-width="1"/><line x1="359" y1="47.01" x2="359" y2="72.99" stroke="#5EE7FF" stroke-width="1"/><line x1="360" y1="37.96" x2="360" y2="82.04" stroke="#5EE7FF" stroke-width="1"/><line x1="361" y1="36.33" x2="361" y2="83.67" stroke="#5EE7FF" stroke-width="1"/><line x1="362" y1="37.22" x2="362" y2="82.78" stroke="#5EE7FF" stroke-width="1"/><line x1="363" y1="44.94" x2="363" y2="75.06" stroke="#5EE7FF" stroke-width="1"/><line x1="364" y1="47.55" x2="364" y2="72.45" stroke="#5EE7FF" stroke-width="1"/><line x1="365" y1="38.18" x2="365" y2="81.82" stroke="#5EE7FF" stroke-width="1"/><line x1="366" y1="36.31" x2="366" y2="83.69" stroke="#5EE7FF" stroke-width="1"/><line x1="367" y1="37.07" x2="367" y2="82.93" stroke="#5EE7FF" stroke-width="1"/><line x1="368" y1="44.46" x2="368" y2="75.54" stroke="#5EE7FF" stroke-width="1"/><line x1="369" y1="48.11" x2="369" y2="71.89" stroke="#5EE7FF" stroke-width="1"/><line x1="370" y1="38.42" x2="370" y2="81.58" stroke="#5EE7FF" stroke-width="1"/><line x1="371" y1="36.31" x2="371" y2="83.69" stroke="#5EE7FF" stroke-width="1"/><line x1="372" y1="36.94" x2="372" y2="83.06" stroke="#5EE7FF" stroke-width="1"/><line x1="373" y1="43.99" x2="373" y2="76.01" stroke="#5EE7FF" stroke-width="1"/><line x1="374" y1="48.68" x2="374" y2="71.32" stroke="#5EE7FF" stroke-width="1"/><line x1="375" y1="38.67" x2="375" y2="81.33" stroke="#5EE7FF" stroke-width="1"/><line x1="376" y1="36.33" x2="376" y2="83.67" stroke="#5EE7FF" stroke-width="1"/><line x1="377" y1="36.81" x2="377" y2="83.19" stroke="#5EE7FF" stroke-width="1"/><line x1="378" y1="43.54" x2="378" y2="76.46" stroke="#5EE7FF" stroke-width="1"/><line x1="379" y1="49.26" x2="379" y2="70.74" stroke="#5EE7FF" stroke-width="1"/><line x1="380" y1="38.93" x2="380" y2="81.07" stroke="#5EE7FF" stroke-width="1"/><line x1="381" y1="36.32" x2="381" y2="83.68" stroke="#5EE7FF" stroke-width="1"/><line x1="382" y1="36.70" x2="382" y2="83.30" stroke="#5EE7FF" stroke-width="1"/><line x1="383" y1="43.09" x2="383" y2="76.91" stroke="#5EE7FF" stroke-width="1"/><line x1="384" y1="49.85" x2="384" y2="70.15" stroke="#5EE7FF" stroke-width="1"/><line x1="385" y1="39.20" x2="385" y2="80.80" stroke="#5EE7FF" stroke-width="1"/><line x1="386" y1="36.31" x2="386" y2="83.69" stroke="#5EE7FF" stroke-width="1"/><line x1="387" y1="36.61" x2="387" y2="83.39" stroke="#5EE7FF" stroke-width="1"/><line x1="388" y1="42.66" x2="388" y2="77.34" stroke="#5EE7FF" stroke-width="1"/><line x1="389" y1="50.45" x2="389" y2="69.55" stroke="#5EE7FF" stroke-width="1"/><line x1="390" y1="39.49" x2="390" y2="80.51" stroke="#5EE7FF" stroke-width="1"/><line x1="391" y1="36.32" x2="391" y2="83.68" stroke="#5EE7FF" stroke-width="1"/><line x1="392" y1="36.52" x2="392" y2="83.48" stroke="#5EE7FF" stroke-width="1"/><line x1="393" y1="42.25" x2="393" y2="77.75" stroke="#5EE7FF" stroke-width="1"/><line x1="394" y1="51.06" x2="394" y2="68.94" stroke="#5EE7FF" stroke-width="1"/><line x1="395" y1="39.80" x2="395" y2="80.20" stroke="#5EE7FF" stroke-width="1"/><line x1="396" y1="36.32" x2="396" y2="83.68" stroke="#5EE7FF" stroke-width="1"/><line x1="397" y1="36.45" x2="397" y2="83.55" stroke="#5EE7FF" stroke-width="1"/><line x1="398" y1="41.85" x2="398" y2="78.15" stroke="#5EE7FF" stroke-width="1"/><line x1="399" y1="51.68" x2="399" y2="68.32" stroke="#5EE7FF" stroke-width="1"/><line x1="400" y1="40.12" x2="400" y2="79.88" stroke="#5EE7FF" stroke-width="1"/><line x1="401" y1="36.31" x2="401" y2="83.69" stroke="#5EE7FF" stroke-width="1"/><line x1="402" y1="36.40" x2="402" y2="83.60" stroke="#5EE7FF" stroke-width="1"/><line x1="403" y1="41.46" x2="403" y2="78.54" stroke="#5EE7FF" stroke-width="1"/><line x1="404" y1="52.31" x2="404" y2="67.69" stroke="#5EE7FF" stroke-width="1"/><line x1="405" y1="40.45" x2="405" y2="79.55" stroke="#5EE7FF" stroke-width="1"/><line x1="406" y1="36.32" x2="406" y2="83.68" stroke="#5EE7FF" stroke-width="1"/><line x1="407" y1="36.36" x2="407" y2="83.64" stroke="#5EE7FF" stroke-width="1"/><line x1="408" y1="41.09" x2="408" y2="78.91" stroke="#5EE7FF" stroke-width="1"/><line x1="409" y1="52.94" x2="409" y2="67.06" stroke="#5EE7FF" stroke-width="1"/><line x1="410" y1="40.80" x2="410" y2="79.20" stroke="#5EE7FF" stroke-width="1"/><line x1="411" y1="36.33" x2="411" y2="83.67" stroke="#5EE7FF" stroke-width="1"/><line x1="412" y1="36.33" x2="412" y2="83.67" stroke="#5EE7FF" stroke-width="1"/><line x1="413" y1="40.73" x2="413" y2="79.27" stroke="#5EE7FF" stroke-width="1"/><line x1="414" y1="52.82" x2="414" y2="67.18" stroke="#5EE7FF" stroke-width="1"/><line x1="415" y1="41.16" x2="415" y2="78.84" stroke="#5EE7FF" stroke-width="1"/><line x1="416" y1="36.36" x2="416" y2="83.64" stroke="#5EE7FF" stroke-width="1"/><line x1="417" y1="36.31" x2="417" y2="83.69" stroke="#5EE7FF" stroke-width="1"/><line x1="418" y1="40.38" x2="418" y2="79.62" stroke="#5EE7FF" stroke-width="1"/><line x1="419" y1="52.18" x2="419" y2="67.82" stroke="#5EE7FF" stroke-width="1"/><line x1="420" y1="41.54" x2="420" y2="78.46" stroke="#5EE7FF" stroke-width="1"/><line x1="421" y1="36.41" x2="421" y2="83.59" stroke="#5EE7FF" stroke-width="1"/><line x1="422" y1="36.31" x2="422" y2="83.69" stroke="#5EE7FF" stroke-width="1"/><line x1="423" y1="40.05" x2="423" y2="79.95" stroke="#5EE7FF" stroke-width="1"/><line x1="424" y1="51.56" x2="424" y2="68.44" stroke="#5EE7FF" stroke-width="1"/><line x1="425" y1="41.93" x2="425" y2="78.07" stroke="#5EE7FF" stroke-width="1"/><line x1="426" y1="36.47" x2="426" y2="83.53" stroke="#5EE7FF" stroke-width="1"/><line x1="427" y1="36.33" x2="427" y2="83.67" stroke="#5EE7FF" stroke-width="1"/><line x1="428" y1="39.74" x2="428" y2="80.26" stroke="#5EE7FF" stroke-width="1"/><line x1="429" y1="50.94" x2="429" y2="69.06" stroke="#5EE7FF" stroke-width="1"/><line x1="430" y1="42.33" x2="430" y2="77.67" stroke="#5EE7FF" stroke-width="1"/><line x1="431" y1="36.54" x2="431" y2="83.46" stroke="#5EE7FF" stroke-width="1"/><line x1="432" y1="36.32" x2="432" y2="83.68" stroke="#5EE7FF" stroke-width="1"/><line x1="433" y1="39.43" x2="433" y2="80.57" stroke="#5EE7FF" stroke-width="1"/><line x1="434" y1="50.33" x2="434" y2="69.67" stroke="#5EE7FF" stroke-width="1"/><line x1="435" y1="42.75" x2="435" y2="77.25" stroke="#5EE7FF" stroke-width="1"/><line x1="436" y1="36.62" x2="436" y2="83.38" stroke="#5EE7FF" stroke-width="1"/><line x1="437" y1="36.31" x2="437" y2="83.69" stroke="#5EE7FF" stroke-width="1"/><line x1="438" y1="39.15" x2="438" y2="80.85" stroke="#5EE7FF" stroke-width="1"/><line x1="439" y1="49.73" x2="439" y2="70.27" stroke="#5EE7FF" stroke-width="1"/><line x1="440" y1="43.18" x2="440" y2="76.82" stroke="#5EE7FF" stroke-width="1"/><line x1="441" y1="36.72" x2="441" y2="83.28" stroke="#5EE7FF" stroke-width="1"/><line x1="442" y1="36.32" x2="442" y2="83.68" stroke="#5EE7FF" stroke-width="1"/><line x1="443" y1="38.87" x2="443" y2="81.13" stroke="#5EE7FF" stroke-width="1"/><line x1="444" y1="49.14" x2="444" y2="70.86" stroke="#5EE7FF" stroke-width="1"/><line x1="445" y1="43.63" x2="445" y2="76.37" stroke="#5EE7FF" stroke-width="1"/><line x1="446" y1="36.84" x2="446" y2="83.16" stroke="#5EE7FF" stroke-width="1"/><line x1="447" y1="36.33" x2="447" y2="83.67" stroke="#5EE7FF" stroke-width="1"/><line x1="448" y1="38.61" x2="448" y2="81.39" stroke="#5EE7FF" stroke-width="1"/><line x1="449" y1="48.57" x2="449" y2="71.43" stroke="#5EE7FF" stroke-width="1"/><line x1="450" y1="44.08" x2="450" y2="75.92" stroke="#5EE7FF" stroke-width="1"/><line x1="451" y1="36.96" x2="451" y2="83.04" stroke="#5EE7FF" stroke-width="1"/><line x1="452" y1="36.31" x2="452" y2="83.69" stroke="#5EE7FF" stroke-width="1"/><line x1="453" y1="38.37" x2="453" y2="81.63" stroke="#5EE7FF" stroke-width="1"/><line x1="454" y1="48.00" x2="454" y2="72.00" stroke="#5EE7FF" stroke-width="1"/><line x1="455" y1="44.56" x2="455" y2="75.44" stroke="#5EE7FF" stroke-width="1"/><line x1="456" y1="37.10" x2="456" y2="82.90" stroke="#5EE7FF" stroke-width="1"/><line x1="457" y1="36.31" x2="457" y2="83.69" stroke="#5EE7FF" stroke-width="1"/><line x1="458" y1="38.14" x2="458" y2="81.86" stroke="#5EE7FF" stroke-width="1"/><line x1="459" y1="47.44" x2="459" y2="72.56" stroke="#5EE7FF" stroke-width="1"/><line x1="460" y1="45.04" x2="460" y2="74.96" stroke="#5EE7FF" stroke-width="1"/><line x1="461" y1="37.25" x2="461" y2="82.75" stroke="#5EE7FF" stroke-width="1"/><line x1="462" y1="36.33" x2="462" y2="83.67" stroke="#5EE7FF" stroke-width="1"/><line x1="463" y1="37.92" x2="463" y2="82.08" stroke="#5EE7FF" stroke-width="1"/><line x1="464" y1="46.90" x2="464" y2="73.10" stroke="#5EE7FF" stroke-width="1"/><line x1="465" y1="45.54" x2="465" y2="74.46" stroke="#5EE7FF" stroke-width="1"/><line x1="466" y1="37.42" x2="466" y2="82.58" stroke="#5EE7FF" stroke-width="1"/><line x1="467" y1="36.32" x2="467" y2="83.68" stroke="#5EE7FF" stroke-width="1"/><line x1="468" y1="37.72" x2="468" y2="82.28" stroke="#5EE7FF" stroke-width="1"/><line x1="469" y1="46.37" x2="469" y2="73.63" stroke="#5EE7FF" stroke-width="1"/><line x1="470" y1="46.05" x2="470" y2="73.95" stroke="#5EE7FF" stroke-width="1"/><line x1="471" y1="37.60" x2="471" y2="82.40" stroke="#5EE7FF" stroke-width="1"/><line x1="472" y1="36.31" x2="472" y2="83.69" stroke="#5EE7FF" stroke-width="1"/><line x1="473" y1="37.53" x2="473" y2="82.47" stroke="#5EE7FF" stroke-width="1"/><line x1="474" y1="45.85" x2="474" y2="74.15" stroke="#5EE7FF" stroke-width="1"/><line x1="475" y1="46.58" x2="475" y2="73.42" stroke="#5EE7FF" stroke-width="1"/><line x1="476" y1="37.80" x2="476" y2="82.20" stroke="#5EE7FF" stroke-width="1"/><line x1="477" y1="36.32" x2="477" y2="83.68" stroke="#5EE7FF" stroke-width="1"/><line x1="478" y1="37.35" x2="478" y2="82.65" stroke="#5EE7FF" stroke-width="1"/><line x1="479" y1="45.34" x2="479" y2="74.66" stroke="#5EE7FF" stroke-width="1"/><line x1="480" y1="47.11" x2="480" y2="72.89" stroke="#5EE7FF" stroke-width="1"/><line x1="481" y1="38.01" x2="481" y2="81.99" stroke="#5EE7FF" stroke-width="1"/><line x1="482" y1="36.32" x2="482" y2="83.68" stroke="#5EE7FF" stroke-width="1"/><line x1="483" y1="37.19" x2="483" y2="82.81" stroke="#5EE7FF" stroke-width="1"/><line x1="484" y1="44.85" x2="484" y2="75.15" stroke="#5EE7FF" stroke-width="1"/><line x1="485" y1="47.66" x2="485" y2="72.34" stroke="#5EE7FF" stroke-width="1"/><line x1="486" y1="38.23" x2="486" y2="81.77" stroke="#5EE7FF" stroke-width="1"/><line x1="487" y1="36.31" x2="487" y2="83.69" stroke="#5EE7FF" stroke-width="1"/><line x1="488" y1="37.04" x2="488" y2="82.96" stroke="#5EE7FF" stroke-width="1"/><line x1="489" y1="44.37" x2="489" y2="75.63" stroke="#5EE7FF" stroke-width="1"/><line x1="490" y1="48.22" x2="490" y2="71.78" stroke="#5EE7FF" stroke-width="1"/><line x1="491" y1="38.47" x2="491" y2="81.53" stroke="#5EE7FF" stroke-width="1"/><line x1="492" y1="36.32" x2="492" y2="83.68" stroke="#5EE7FF" stroke-width="1"/><line x1="493" y1="36.91" x2="493" y2="83.09" stroke="#5EE7FF" stroke-width="1"/><line x1="494" y1="43.90" x2="494" y2="76.10" stroke="#5EE7FF" stroke-width="1"/><line x1="495" y1="48.80" x2="495" y2="71.20" stroke="#5EE7FF" stroke-width="1"/><line x1="496" y1="38.72" x2="496" y2="81.28" stroke="#5EE7FF" stroke-width="1"/><line x1="497" y1="36.33" x2="497" y2="83.67" stroke="#5EE7FF" stroke-width="1"/><line x1="498" y1="36.79" x2="498" y2="83.21" stroke="#5EE7FF" stroke-width="1"/><line x1="499" y1="43.45" x2="499" y2="76.55" stroke="#5EE7FF" stroke-width="1"/><line x1="500" y1="49.38" x2="500" y2="70.62" stroke="#5EE7FF" stroke-width="1"/><line x1="501" y1="38.98" x2="501" y2="81.02" stroke="#5EE7FF" stroke-width="1"/><line x1="502" y1="36.31" x2="502" y2="83.69" stroke="#5EE7FF" stroke-width="1"/><line x1="503" y1="36.68" x2="503" y2="83.32" stroke="#5EE7FF" stroke-width="1"/><line x1="504" y1="43.01" x2="504" y2="76.99" stroke="#5EE7FF" stroke-width="1"/><line x1="505" y1="49.97" x2="505" y2="70.03" stroke="#5EE7FF" stroke-width="1"/><line x1="506" y1="39.26" x2="506" y2="80.74" stroke="#5EE7FF" stroke-width="1"/><line x1="507" y1="36.31" x2="507" y2="83.69" stroke="#5EE7FF" stroke-width="1"/><line x1="508" y1="36.59" x2="508" y2="83.41" stroke="#5EE7FF" stroke-width="1"/><line x1="509" y1="42.58" x2="509" y2="77.42" stroke="#5EE7FF" stroke-width="1"/><line x1="510" y1="50.57" x2="510" y2="69.43" stroke="#5EE7FF" stroke-width="1"/><line x1="511" y1="39.55" x2="511" y2="80.45" stroke="#5EE7FF" stroke-width="1"/><line x1="512" y1="36.33" x2="512" y2="83.67" stroke="#5EE7FF" stroke-width="1"/><line x1="513" y1="36.51" x2="513" y2="83.49" stroke="#5EE7FF" stroke-width="1"/><line x1="514" y1="42.17" x2="514" y2="77.83" stroke="#5EE7FF" stroke-width="1"/><line x1="515" y1="51.28" x2="515" y2="68.72" stroke="#5EE7FF" stroke-width="1"/><line x1="516" y1="40.18" x2="516" y2="79.82" stroke="#5EE7FF" stroke-width="1"/><line x1="517" y1="36.81" x2="517" y2="83.19" stroke="#5EE7FF" stroke-width="1"/><line x1="518" y1="36.95" x2="518" y2="83.05" stroke="#5EE7FF" stroke-width="1"/><line x1="519" y1="42.30" x2="519" y2="77.70" stroke="#5EE7FF" stroke-width="1"/><line x1="520" y1="52.16" x2="520" y2="67.84" stroke="#5EE7FF" stroke-width="1"/><line x1="521" y1="41.09" x2="521" y2="78.91" stroke="#5EE7FF" stroke-width="1"/><line x1="522" y1="37.46" x2="522" y2="82.54" stroke="#5EE7FF" stroke-width="1"/><line x1="523" y1="37.56" x2="523" y2="82.44" stroke="#5EE7FF" stroke-width="1"/><line x1="524" y1="42.49" x2="524" y2="77.51" stroke="#5EE7FF" stroke-width="1"/><line x1="525" y1="53.01" x2="525" y2="66.99" stroke="#5EE7FF" stroke-width="1"/><line x1="526" y1="42.00" x2="526" y2="78.00" stroke="#5EE7FF" stroke-width="1"/><line x1="527" y1="38.15" x2="527" y2="81.85" stroke="#5EE7FF" stroke-width="1"/><line x1="528" y1="38.20" x2="528" y2="81.80" stroke="#5EE7FF" stroke-width="1"/><line x1="529" y1="42.71" x2="529" y2="77.29" stroke="#5EE7FF" stroke-width="1"/><line x1="530" y1="53.83" x2="530" y2="66.17" stroke="#5EE7FF" stroke-width="1"/><line x1="531" y1="42.91" x2="531" y2="77.09" stroke="#5EE7FF" stroke-width="1"/><line x1="532" y1="38.85" x2="532" y2="81.15" stroke="#5EE7FF" stroke-width="1"/><line x1="533" y1="38.86" x2="533" y2="81.14" stroke="#5EE7FF" stroke-width="1"/><line x1="534" y1="42.97" x2="534" y2="77.03" stroke="#5EE7FF" stroke-width="1"/><line x1="535" y1="53.69" x2="535" y2="66.31" stroke="#5EE7FF" stroke-width="1"/><line x1="536" y1="43.82" x2="536" y2="76.18" stroke="#5EE7FF" stroke-width="1"/><line x1="537" y1="39.58" x2="537" y2="80.42" stroke="#5EE7FF" stroke-width="1"/><line x1="538" y1="39.55" x2="538" y2="80.45" stroke="#5EE7FF" stroke-width="1"/><line x1="539" y1="43.27" x2="539" y2="76.73" stroke="#5EE7FF" stroke-width="1"/><line x1="540" y1="53.40" x2="540" y2="66.60" stroke="#5EE7FF" stroke-width="1"/><line x1="541" y1="44.73" x2="541" y2="75.27" stroke="#5EE7FF" stroke-width="1"/><line x1="542" y1="40.33" x2="542" y2="79.67" stroke="#5EE7FF" stroke-width="1"/><line x1="543" y1="40.26" x2="543" y2="79.74" stroke="#5EE7FF" stroke-width="1"/><line x1="544" y1="43.60" x2="544" y2="76.40" stroke="#5EE7FF" stroke-width="1"/><line x1="545" y1="53.16" x2="545" y2="66.84" stroke="#5EE7FF" stroke-width="1"/><line x1="546" y1="45.64" x2="546" y2="74.36" stroke="#5EE7FF" stroke-width="1"/><line x1="547" y1="41.10" x2="547" y2="78.90" stroke="#5EE7FF" stroke-width="1"/><line x1="548" y1="40.99" x2="548" y2="79.01" stroke="#5EE7FF" stroke-width="1"/><line x1="549" y1="43.96" x2="549" y2="76.04" stroke="#5EE7FF" stroke-width="1"/><line x1="550" y1="52.96" x2="550" y2="67.04" stroke="#5EE7FF" stroke-width="1"/><line x1="551" y1="46.54" x2="551" y2="73.46" stroke="#5EE7FF" stroke-width="1"/><line x1="552" y1="41.89" x2="552" y2="78.11" stroke="#5EE7FF" stroke-width="1"/><line x1="553" y1="41.73" x2="553" y2="78.27" stroke="#5EE7FF" stroke-width="1"/><line x1="554" y1="44.36" x2="554" y2="75.64" stroke="#5EE7FF" stroke-width="1"/><line x1="555" y1="52.81" x2="555" y2="67.19" stroke="#5EE7FF" stroke-width="1"/><line x1="556" y1="47.43" x2="556" y2="72.57" stroke="#5EE7FF" stroke-width="1"/><line x1="557" y1="42.69" x2="557" y2="77.31" stroke="#5EE7FF" stroke-width="1"/><line x1="558" y1="42.47" x2="558" y2="77.53" stroke="#5EE7FF" stroke-width="1"/><line x1="559" y1="44.80" x2="559" y2="75.20" stroke="#5EE7FF" stroke-width="1"/><line x1="560" y1="52.71" x2="560" y2="67.29" stroke="#5EE7FF" stroke-width="1"/><line x1="561" y1="48.30" x2="561" y2="71.70" stroke="#5EE7FF" stroke-width="1"/><line x1="562" y1="43.51" x2="562" y2="76.49" stroke="#5EE7FF" stroke-width="1"/><line x1="563" y1="43.23" x2="563" y2="76.77" stroke="#5EE7FF" stroke-width="1"/><line x1="564" y1="45.27" x2="564" y2="74.73" stroke="#5EE7FF" stroke-width="1"/><line x1="565" y1="52.65" x2="565" y2="67.35" stroke="#5EE7FF" stroke-width="1"/><line x1="566" y1="49.16" x2="566" y2="70.84" stroke="#5EE7FF" stroke-width="1"/><line x1="567" y1="44.35" x2="567" y2="75.65" stroke="#5EE7FF" stroke-width="1"/><line x1="568" y1="44.00" x2="568" y2="76.00" stroke="#5EE7FF" stroke-width="1"/><line x1="569" y1="45.77" x2="569" y2="74.23" stroke="#5EE7FF" stroke-width="1"/><line x1="570" y1="52.64" x2="570" y2="67.36" stroke="#5EE7FF" stroke-width="1"/><line x1="571" y1="50.00" x2="571" y2="70.00" stroke="#5EE7FF" stroke-width="1"/><line x1="572" y1="45.19" x2="572" y2="74.81" stroke="#5EE7FF" stroke-width="1"/><line x1="573" y1="44.77" x2="573" y2="75.23" stroke="#5EE7FF" stroke-width="1"/><line x1="574" y1="46.30" x2="574" y2="73.70" stroke="#5EE7FF" stroke-width="1"/><line x1="575" y1="52.67" x2="575" y2="67.33" stroke="#5EE7FF" stroke-width="1"/><line x1="576" y1="50.82" x2="576" y2="69.18" stroke="#5EE7FF" stroke-width="1"/><line x1="577" y1="46.04" x2="577" y2="73.96" stroke="#5EE7FF" stroke-width="1"/><line x1="578" y1="45.55" x2="578" y2="74.45" stroke="#5EE7FF" stroke-width="1"/><line x1="579" y1="46.86" x2="579" y2="73.14" stroke="#5EE7FF" stroke-width="1"/><line x1="580" y1="52.75" x2="580" y2="67.25" stroke="#5EE7FF" stroke-width="1"/><line x1="581" y1="51.62" x2="581" y2="68.38" stroke="#5EE7FF" stroke-width="1"/><line x1="582" y1="46.90" x2="582" y2="73.10" stroke="#5EE7FF" stroke-width="1"/><line x1="583" y1="46.35" x2="583" y2="73.65" stroke="#5EE7FF" stroke-width="1"/><line x1="584" y1="47.45" x2="584" y2="72.55" stroke="#5EE7FF" stroke-width="1"/><line x1="585" y1="52.86" x2="585" y2="67.14" stroke="#5EE7FF" stroke-width="1"/><line x1="586" y1="52.39" x2="586" y2="67.61" stroke="#5EE7FF" stroke-width="1"/><line x1="587" y1="47.77" x2="587" y2="72.23" stroke="#5EE7FF" stroke-width="1"/><line x1="588" y1="47.15" x2="588" y2="72.85" stroke="#5EE7FF" stroke-width="1"/><line x1="589" y1="48.08" x2="589" y2="71.92" stroke="#5EE7FF" stroke-width="1"/><line x1="590" y1="53.02" x2="590" y2="66.98" stroke="#5EE7FF" stroke-width="1"/><line x1="591" y1="53.14" x2="591" y2="66.86" stroke="#5EE7FF" stroke-width="1"/><line x1="592" y1="48.64" x2="592" y2="71.36" stroke="#5EE7FF" stroke-width="1"/><line x1="593" y1="47.95" x2="593" y2="72.05" stroke="#5EE7FF" stroke-width="1"/><line x1="594" y1="48.72" x2="594" y2="71.28" stroke="#5EE7FF" stroke-width="1"/><line x1="595" y1="53.23" x2="595" y2="66.77" stroke="#5EE7FF" stroke-width="1"/><line x1="596" y1="53.86" x2="596" y2="66.14" stroke="#5EE7FF" stroke-width="1"/><line x1="597" y1="49.50" x2="597" y2="70.50" stroke="#5EE7FF" stroke-width="1"/><line x1="598" y1="48.77" x2="598" y2="71.23" stroke="#5EE7FF" stroke-width="1"/><line x1="599" y1="49.40" x2="599" y2="70.60" stroke="#5EE7FF" stroke-width="1"/></svg>